<?xml version="1.0" standalone="no"?>
<!DOCTYPE svg PUBLIC "-//W3C//DTD SVG 20010904//EN"
 "http://www.w3.org/TR/2001/REC-SVG-20010904/DTD/svg10.dtd">
<svg version="1.0" xmlns="http://www.w3.org/2000/svg"
 width="32.000000pt" height="32.000000pt" viewBox="0 0 50.000000 50.000000"
 preserveAspectRatio="xMidYMid meet">

<g transform="translate(0.000000,50.000000) scale(0.100000,-0.100000)"
fill="white" stroke="none">
<path d="M170 456 c-30 -6 -65 -17 -77 -24 -28 -16 -38 -53 -23 -82 10 -19 8
-26 -19 -54 -17 -18 -31 -39 -31 -47 0 -19 181 -199 200 -199 8 0 58 44 112
97 54 53 101 93 105 89 4 -4 8 -40 8 -79 0 -70 1 -72 25 -72 25 0 25 1 25 87
0 85 -1 88 -33 121 -19 19 -57 46 -86 61 -29 15 -72 47 -96 71 -24 25 -47 45
-50 44 -3 0 -30 -6 -60 -13z m-15 -56 c-57 -58 -33 -63 25 -5 l50 50 93 -93
92 -92 -98 -97 -97 -98 -92 92 -92 93 32 33 c33 34 33 34 81 21 75 -19 126
-21 126 -5 0 10 -17 14 -60 16 -128 5 -182 78 -84 112 59 21 65 15 24 -27z
m305 -137 c16 -20 20 -40 20 -94 0 -43 -4 -69 -11 -69 -7 0 -8 20 -4 63 l7 63
-49 54 c-40 46 -43 51 -16 32 18 -13 41 -34 53 -49z"/>
</g>
</svg>
