<?xml version="1.0" standalone="no"?>
<!DOCTYPE svg PUBLIC "-//W3C//DTD SVG 20010904//EN"
 "http://www.w3.org/TR/2001/REC-SVG-20010904/DTD/svg10.dtd">
<svg version="1.0" xmlns="http://www.w3.org/2000/svg"
 width="35.000000pt" height="35.000000pt" viewBox="0 0 1200.000000 1200.000000"
 preserveAspectRatio="xMidYMid meet">

<g transform="translate(0.000000,1200.000000) scale(0.100000,-0.100000)"
fill="white">
<path d="M3752 10480 c-18 -11 -41 -34 -52 -52 -20 -33 -20 -55 -20 -2160 l0
-2128 -1049 -2 -1049 -3 -27 -25 c-54 -50 -69 -114 -41 -168 18 -33 4402
-4415 4433 -4431 30 -15 79 -14 111 3 33 18 4415 4402 4431 4433 25 50 8 115
-44 163 l-27 25 -1049 3 -1049 2 0 2128 c0 2105 0 2127 -20 2160 -37 61 -117
89 -173 61 -12 -6 -496 -484 -1074 -1063 l-1053 -1051 -1052 1051 c-579 579
-1063 1057 -1075 1063 -33 17 -84 13 -121 -9z m1193 -1441 c534 -534 982 -977
997 -985 35 -18 82 -18 116 0 15 8 464 451 997 985 534 534 973 971 978 971 4
0 7 -910 7 -2022 0 -2001 0 -2023 20 -2056 11 -18 34 -41 52 -52 32 -20 53
-20 966 -20 512 0 932 -3 932 -7 0 -5 -903 -910 -2005 -2013 l-2005 -2004
-2005 2004 c-1103 1103 -2005 2008 -2005 2013 0 4 420 7 933 7 912 0 933 0
965 20 18 11 41 34 52 52 20 33 20 55 20 2056 0 1112 3 2022 8 2022 4 0 444
-437 977 -971z"/>
</g>
</svg>
