<?xml version="1.0" standalone="no"?>
<!DOCTYPE svg PUBLIC "-//W3C//DTD SVG 20010904//EN"
 "http://www.w3.org/TR/2001/REC-SVG-20010904/DTD/svg10.dtd">
<svg version="1.0" xmlns="http://www.w3.org/2000/svg"
 width="20.000000pt" height="20.000000pt" viewBox="0 0 50.000000 50.000000"
 preserveAspectRatio="xMidYMid meet">

<g transform="translate(0.000000,50.000000) scale(0.100000,-0.100000)"
fill="#fff" stroke="none">
<path d="M200 478 c0 -13 5 -30 10 -38 8 -12 10 -9 10 13 0 27 0 27 70 27 l70
0 0 -60 0 -60 60 0 60 0 0 -130 0 -130 -70 0 c-40 0 -70 -4 -70 -10 0 -6 33
-10 80 -10 l80 0 0 148 0 148 -63 62 -63 62 -87 0 c-84 0 -87 -1 -87 -22z
m225 -58 l39 -40 -42 0 -42 0 0 40 c0 22 1 40 3 40 2 0 21 -18 42 -40z"/>
<path d="M0 215 l0 -215 160 0 160 0 0 153 0 153 -63 62 -63 62 -97 0 -97 0 0
-215z m180 135 l0 -60 60 0 60 0 0 -135 0 -135 -140 0 -140 0 0 195 0 195 80
0 80 0 0 -60z m65 0 l39 -40 -42 0 -42 0 0 40 c0 22 1 40 3 40 2 0 21 -18 42
-40z"/>
<path d="M176 245 c-15 -14 -26 -35 -26 -50 0 -18 -5 -25 -19 -25 -33 0 -51
-11 -66 -41 -27 -51 12 -91 64 -65 30 16 41 34 41 67 0 12 7 19 19 19 33 0 51
11 67 41 16 32 7 62 -22 73 -24 9 -29 8 -58 -19z m67 -20 c7 -17 -20 -55 -40
-55 -13 0 -13 3 -3 15 17 20 5 32 -15 15 -12 -10 -15 -10 -15 3 0 20 38 47 55
40 8 -2 16 -10 18 -18z m-120 -92 c-5 -12 -2 -15 10 -10 25 9 21 -19 -4 -37
-38 -26 -69 5 -43 43 18 25 46 29 37 4z"/>
</g>
</svg>
