<?xml version="1.0" standalone="no"?>
<!DOCTYPE svg PUBLIC "-//W3C//DTD SVG 20010904//EN"
 "http://www.w3.org/TR/2001/REC-SVG-20010904/DTD/svg10.dtd">
<svg version="1.0" xmlns="http://www.w3.org/2000/svg"
 width="100.000000pt" height="65.000000pt" viewBox="0 0 360.000000 360.000000"
 preserveAspectRatio="xMidYMid meet">

<g transform="translate(0.000000,360.000000) scale(0.100000,-0.100000)"
fill="white" stroke="none">
<path d="M807 3019 c-9 -6 -15 -14 -12 -20 4 -5 -2 -12 -11 -16 -27 -10 -54
-35 -48 -45 3 -4 1 -8 -5 -8 -14 0 -91 -74 -91 -87 0 -7 -9 -15 -20 -18 -11
-3 -20 -13 -20 -21 0 -8 -5 -14 -10 -14 -6 0 -33 -22 -60 -49 -36 -36 -48 -54
-43 -67 5 -14 2 -16 -16 -11 -17 4 -21 2 -17 -8 3 -9 0 -12 -10 -8 -7 3 -14 0
-14 -6 0 -6 5 -11 10 -11 16 0 11 -17 -7 -24 -9 -4 -20 -1 -24 5 -9 15 -38
-40 -31 -60 3 -10 0 -11 -14 -3 -14 8 -26 2 -63 -36 -25 -25 -46 -53 -46 -61
0 -9 -8 -16 -17 -16 -33 0 -30 -15 18 -72 34 -41 55 -57 68 -55 14 3 17 0 13
-11 -4 -10 2 -17 20 -22 16 -4 23 -11 19 -20 -3 -8 -1 -17 5 -20 5 -4 6 -11 3
-17 -5 -8 -1 -9 10 -5 14 6 17 3 12 -9 -6 -14 39 -77 101 -142 7 -7 47 -56 89
-108 42 -52 82 -94 90 -94 8 0 20 11 26 25 11 25 28 34 28 15 0 -13 -37 -50
-50 -50 -10 0 142 -186 164 -202 5 -3 15 -4 23 -1 7 3 13 -1 13 -8 0 -12 2
-12 9 -1 6 10 10 9 14 -7 4 -16 0 -21 -16 -21 -19 0 -19 -2 8 -30 18 -19 31
-26 36 -19 4 8 15 6 35 -4 20 -10 35 -12 46 -6 12 7 16 5 14 -8 -3 -21 -63
-27 -86 -10 -8 7 5 -13 31 -43 150 -182 194 -232 210 -241 11 -5 19 -14 19
-20 0 -21 42 -69 53 -63 7 4 9 4 5 -1 -10 -11 10 -45 27 -45 8 0 14 -4 13 -9
-5 -17 76 -111 95 -111 13 0 17 -5 14 -15 -6 -14 59 -101 88 -117 8 -5 15 -14
15 -21 0 -7 22 -35 49 -64 38 -42 50 -50 61 -40 10 10 12 7 8 -15 -4 -21 4
-36 40 -75 25 -26 45 -51 44 -55 -1 -3 5 -11 12 -17 10 -9 27 5 75 61 34 40
79 91 100 113 124 128 311 350 306 363 -3 9 0 12 9 9 17 -7 45 23 39 41 -3 6
2 12 10 12 13 0 36 22 122 121 17 18 48 53 70 77 31 35 36 45 24 53 -11 7 -9
9 9 9 13 0 20 4 17 10 -3 6 0 10 7 10 14 0 88 70 88 83 0 3 -7 3 -17 0 -11 -4
-14 -3 -9 6 5 7 14 10 21 7 8 -3 19 2 25 10 7 8 9 14 4 15 -5 0 -2 3 8 7 9 4
42 36 73 72 32 36 75 84 96 107 43 46 46 53 24 53 -8 0 -15 5 -15 11 0 7 9 9
24 5 29 -7 60 23 50 48 -5 14 -2 17 17 14 16 -2 24 2 24 12 0 8 8 18 18 22 18
8 24 28 7 28 -5 0 -7 7 -4 15 6 14 8 14 19 -1 11 -15 13 -15 28 6 9 13 13 28
10 33 -3 6 -1 7 4 4 6 -4 16 0 23 8 7 8 9 15 4 16 -5 0 -2 3 6 7 18 8 155 156
310 335 l33 38 -49 50 c-27 27 -54 47 -61 44 -8 -2 -13 3 -13 15 0 10 -11 27
-25 38 -14 11 -25 23 -25 26 0 3 -26 33 -59 67 -57 59 -60 61 -109 61 -28 -1
-54 3 -56 7 -3 4 -19 6 -35 5 -17 -1 -33 2 -36 6 -11 17 15 20 57 6 25 -9 46
-12 52 -6 5 5 19 4 35 -1 20 -8 12 4 -34 50 -33 33 -66 60 -73 61 -7 0 -10 5
-7 10 3 6 1 10 -4 10 -6 0 -10 4 -9 8 3 9 -134 152 -145 152 -4 0 -7 -7 -7
-15 0 -8 -4 -15 -10 -15 -5 0 -10 4 -10 9 0 13 -37 20 -48 9 -6 -6 -12 -6 -16
1 -10 15 -79 14 -94 -1 -8 -8 -12 -8 -12 -1 0 8 -119 11 -415 12 -318 1 -415
-2 -415 -11 0 -9 -3 -9 -12 0 -7 7 -17 12 -23 12 -5 0 3 -8 18 -19 26 -17 27
-19 8 -24 -11 -3 -34 5 -55 19 l-35 24 -423 0 c-270 -1 -429 -4 -441 -11z
m233 -9 c0 -5 -5 -10 -11 -10 -5 0 -7 5 -4 10 3 6 8 10 11 10 2 0 4 -4 4 -10z
m905 1 c7 -12 -12 -24 -25 -16 -11 7 -4 25 10 25 5 0 11 -4 15 -9z m-1055 -15
c0 -15 16 -16 36 -3 7 4 17 0 24 -8 9 -11 9 -15 1 -15 -7 0 -9 -4 -6 -10 3 -5
1 -10 -4 -10 -6 0 -11 6 -11 13 0 9 -13 13 -40 11 -27 -1 -40 2 -40 11 0 12
14 22 33 24 4 1 7 -5 7 -13z m620 1 c0 -4 -8 -7 -17 -5 -13 2 -17 -3 -15 -16
2 -12 -1 -16 -9 -10 -7 4 -10 3 -6 -3 4 -6 0 -16 -9 -24 -12 -10 -18 -9 -31 3
-15 16 -10 43 6 33 5 -2 17 4 27 14 19 19 54 24 54 8z m296 -18 c11 -51 11
-70 0 -66 -6 2 -11 12 -11 23 0 12 -6 18 -17 18 -17 -2 -17 0 -1 27 19 32 21
32 29 -2z m319 21 c3 -5 1 -10 -4 -10 -6 0 -11 5 -11 10 0 6 2 10 4 10 3 0 8
-4 11 -10z m-1135 -10 c0 -5 -4 -10 -10 -10 -5 0 -10 5 -10 10 0 6 5 10 10 10
6 0 10 -4 10 -10z m250 -2 c0 -4 -9 -8 -20 -8 -11 0 -20 4 -20 8 0 4 9 8 20 8
11 0 20 -4 20 -8z m645 -9 c-10 -15 -25 -10 -19 6 4 8 10 12 15 9 5 -3 7 -10
4 -15z m855 17 c0 -11 -19 -15 -25 -6 -3 5 1 10 9 10 9 0 16 -2 16 -4z m-1710
-13 c0 -5 -5 -15 -10 -23 -8 -12 -10 -11 -10 8 0 12 5 22 10 22 6 0 10 -3 10
-7z m1478 -29 c10 -20 9 -31 -1 -51 -14 -25 -14 -25 -20 -4 -3 14 0 21 9 21
16 0 16 2 8 24 -3 8 -12 12 -20 9 -14 -5 -19 8 -7 20 12 12 20 7 31 -19z
m-576 1 c0 -5 -5 -11 -11 -13 -6 -2 -11 4 -11 13 0 9 5 15 11 13 6 -2 11 -8
11 -13z m-603 -8 c6 -8 8 -17 4 -20 -7 -8 -33 11 -33 24 0 13 16 11 29 -4z
m595 -15 c24 0 48 -2 54 -6 16 -10 15 -26 0 -21 -7 2 -30 6 -51 8 -43 5 -70
24 -60 41 5 7 9 5 11 -7 3 -13 13 -17 46 -15z m183 14 c-5 -16 -27 -19 -27 -3
0 7 7 14 15 14 9 0 14 -5 12 -11z m109 -18 c-6 -4 -13 -3 -14 3 -3 6 -8 6 -17
-1 -9 -7 -20 -6 -40 4 l-28 15 44 3 c46 3 77 -11 55 -24z m-815 -1 c-13 -13
-26 -3 -16 12 3 6 11 8 17 5 6 -4 6 -10 -1 -17z m99 19 c0 -3 -4 -8 -10 -11
-5 -3 -10 -1 -10 4 0 6 5 11 10 11 6 0 10 -2 10 -4z m-649 -22 c25 -11 27 -14
9 -10 -14 3 -31 6 -37 6 -7 0 -13 5 -13 10 0 13 2 13 41 -6z m1989 6 c0 -5 -7
-10 -15 -10 -8 0 -15 5 -15 10 0 6 7 10 15 10 8 0 15 -4 15 -10z m-1770 -9 c0
-12 -28 -22 -34 -12 -3 5 -3 11 1 15 9 9 33 7 33 -3z m1250 -1 c0 -5 -4 -10
-10 -10 -5 0 -10 5 -10 10 0 6 5 10 10 10 6 0 10 -4 10 -10z m140 0 c0 -5 -9
-14 -20 -20 -11 -6 -20 -9 -20 -6 0 2 -3 11 -6 20 -5 12 0 16 20 16 14 0 26
-4 26 -10z m-80 -9 c0 -5 -9 -11 -19 -14 -14 -3 -18 -1 -14 9 6 15 33 19 33 5z
m280 -1 c0 -5 -4 -10 -10 -10 -5 0 -10 5 -10 10 0 6 5 10 10 10 6 0 10 -4 10
-10z m100 -32 c-1 -8 -6 -6 -15 6 -20 26 -19 42 0 22 8 -8 15 -21 15 -28z
m-1023 6 c-9 -9 -28 6 -21 18 4 6 10 6 17 -1 6 -6 8 -13 4 -17z m808 15 c4 -6
13 -8 21 -5 17 6 19 -10 3 -20 -6 -3 -21 3 -32 15 -12 11 -16 21 -10 21 7 0
15 -5 18 -11z m65 1 c0 -5 -4 -10 -10 -10 -5 0 -10 5 -10 10 0 6 5 10 10 10 6
0 10 -4 10 -10z m-1827 -17 c-6 -16 -31 -24 -38 -13 -3 5 -20 7 -38 3 -22 -4
-29 -2 -22 5 20 20 106 25 98 5z m100 -9 c-21 -16 -43 -18 -43 -4 0 9 14 14
33 11 4 0 7 4 7 10 0 5 5 7 11 4 6 -5 4 -12 -8 -21z m902 15 c11 -17 2 -18
-19 -3 -17 12 -17 14 -4 14 9 0 20 -5 23 -11z m265 2 c0 -5 -7 -11 -14 -14
-10 -4 -13 -1 -9 9 6 15 23 19 23 5z m60 -1 c0 -5 -4 -10 -10 -10 -5 0 -10 5
-10 10 0 6 5 10 10 10 6 0 10 -4 10 -10z m580 0 c0 -5 -2 -10 -4 -10 -3 0 -8
5 -11 10 -3 6 -1 10 4 10 6 0 11 -4 11 -10z m-1520 -9 c0 -5 3 -17 7 -27 5
-14 2 -13 -15 4 -26 26 -27 32 -7 32 8 0 15 -4 15 -9z m665 -1 c3 -6 -1 -7 -9
-4 -18 7 -21 14 -7 14 6 0 13 -4 16 -10z m322 -12 c-3 -8 -6 -5 -6 6 -1 11 2
17 5 13 3 -3 4 -12 1 -19z m706 4 c13 -15 13 -19 1 -30 -8 -7 -15 -10 -15 -7
-1 3 -3 10 -4 15 -1 6 -3 12 -4 15 0 3 -10 1 -21 -5 -17 -9 -20 -8 -20 7 0 25
42 28 63 5z m-912 -16 c-8 -10 -9 -16 -1 -21 14 -9 12 -22 -5 -29 -8 -3 -14
-2 -14 2 4 24 -3 42 -16 42 -26 0 -16 19 13 22 34 4 38 2 23 -16z m259 16 c0
-14 -11 -21 -26 -15 -8 3 -11 9 -8 14 7 11 34 12 34 1z m196 -30 c-4 -3 -11 0
-16 8 -15 24 -11 33 6 15 9 -9 13 -19 10 -23z m-1452 12 c4 -10 1 -14 -6 -12
-15 5 -23 28 -10 28 5 0 13 -7 16 -16z m96 6 c0 -5 -7 -10 -15 -10 -8 0 -18 0
-22 -1 -4 0 -9 4 -11 10 -2 6 8 11 22 11 14 0 26 -4 26 -10z m1100 -32 c0 -15
-28 -8 -34 8 -10 26 5 39 21 19 7 -11 13 -22 13 -27z m-565 23 c3 -5 1 -12 -4
-15 -5 -3 -11 1 -15 9 -6 16 9 21 19 6z m415 -1 c0 -5 -4 -10 -10 -10 -5 0
-10 5 -10 10 0 6 5 10 10 10 6 0 10 -4 10 -10z m-1147 -7 c3 -5 -1 -14 -8 -20
-11 -10 -13 -9 -12 7 1 20 12 26 20 13z m397 -3 c0 -5 -4 -10 -10 -10 -5 0
-10 5 -10 10 0 6 5 10 10 10 6 0 10 -4 10 -10z m1414 -21 c-5 -9 -34 -13 -34
-5 0 2 3 12 6 20 5 13 9 14 20 5 8 -6 11 -15 8 -20z m-894 11 c0 -5 -2 -10 -4
-10 -3 0 -8 5 -11 10 -3 6 -1 10 4 10 6 0 11 -4 11 -10z m80 -6 c0 -9 -5 -14
-12 -12 -18 6 -21 28 -4 28 9 0 16 -7 16 -16z m330 6 c0 -5 -4 -10 -10 -10 -5
0 -10 5 -10 10 0 6 5 10 10 10 6 0 10 -4 10 -10z m-1510 -10 c0 -5 -4 -10 -10
-10 -5 0 -10 5 -10 10 0 6 5 10 10 10 6 0 10 -4 10 -10z m74 -17 c0 -15 -6
-29 -12 -31 -13 -4 -16 17 -6 42 10 25 20 19 18 -11z m71 10 c-1 -16 -15 -32
-15 -18 0 3 0 12 0 20 0 8 4 15 8 15 5 0 8 -8 7 -17z m315 12 c0 -2 -19 -14
-42 -26 -115 -58 -281 -195 -256 -211 9 -5 7 -8 -7 -8 -11 0 -26 -9 -32 -19
-12 -18 -9 -20 35 -26 83 -11 98 -15 81 -25 -9 -6 -15 -5 -18 1 -2 7 -6 8 -10
1 -3 -5 -16 -12 -28 -16 -17 -6 -23 -3 -23 8 0 11 -10 16 -33 16 -27 0 -36 -6
-46 -26 -10 -24 -10 -26 6 -20 13 4 12 1 -5 -13 -12 -11 -29 -39 -37 -62 -18
-51 -21 -182 -5 -223 9 -24 7 -49 -3 -35 -34 48 -92 109 -104 109 -8 0 -11 5
-8 11 8 11 -32 59 -49 59 -5 0 -25 10 -43 23 -35 23 -45 50 -15 41 10 -3 6 4
-11 18 -27 24 -28 42 -1 31 17 -6 54 24 54 44 0 8 4 12 8 9 5 -3 33 19 62 49
l53 54 -28 7 c-16 4 -36 2 -47 -5 -32 -20 -22 19 14 51 36 32 64 38 53 11 -19
-48 1 -67 34 -34 13 13 18 27 14 38 -5 12 -2 15 9 11 10 -4 43 22 99 78 l84
84 122 0 c68 0 123 -2 123 -5z m150 1 c0 -2 -7 -7 -16 -10 -8 -3 -12 -2 -9 4
6 10 25 14 25 6z m130 -5 c0 -12 -20 -25 -27 -18 -7 7 6 27 18 27 5 0 9 -4 9
-9z m942 -1 c57 0 97 -4 94 -9 -4 -5 0 -11 6 -14 10 -3 9 -8 -3 -18 -9 -8 -24
-39 -34 -69 -9 -30 -19 -61 -21 -69 -3 -9 -15 2 -33 30 -34 54 -95 110 -139
128 -41 17 -42 36 -1 27 17 -3 76 -6 131 -6z m435 -7 c-7 -7 -22 -10 -37 -6
-22 6 -22 7 -4 14 10 4 27 6 37 6 14 -1 15 -4 4 -14z m-220 -9 c9 -24 -11 -37
-45 -29 -29 6 -30 7 -14 26 20 23 50 25 59 3z m-1082 -4 c-3 -5 -10 -10 -16
-10 -5 0 -9 5 -9 10 0 6 7 10 16 10 8 0 12 -4 9 -10z m70 0 c-3 -5 -11 -10
-16 -10 -6 0 -7 5 -4 10 3 6 11 10 16 10 6 0 7 -4 4 -10z m473 -22 c-2 -23 -8
-32 -18 -31 -10 2 -16 -5 -17 -17 -1 -12 3 -18 9 -14 6 4 13 3 17 -2 14 -20
63 -35 77 -23 16 13 36 3 32 -16 -2 -8 14 -30 36 -49 44 -41 48 -43 39 -18 -5
14 -3 13 10 -3 9 -11 12 -21 6 -23 -5 -2 0 -20 10 -40 21 -41 30 -78 33 -134
l2 -38 64 0 c59 0 63 1 57 20 -3 11 -2 20 3 20 5 0 12 -9 15 -20 4 -17 14 -20
65 -20 60 0 68 6 49 38 -5 7 -3 12 7 12 9 0 18 -11 22 -25 6 -24 7 -25 119
-23 l114 1 0 164 c1 143 -1 164 -14 159 -8 -3 -15 -1 -15 4 0 6 10 10 23 11
12 0 16 3 10 6 -10 3 -9 9 3 21 15 14 17 14 26 -1 6 -12 16 -15 32 -11 27 6
44 -12 27 -29 -8 -8 0 -22 31 -54 43 -44 62 -54 52 -28 -4 10 0 15 10 15 14 0
15 -4 5 -21 -10 -19 -5 -27 37 -70 26 -26 55 -48 63 -47 34 2 52 -2 46 -12 -4
-6 -16 -8 -28 -4 -19 5 -17 1 11 -28 17 -19 32 -39 32 -44 0 -6 -13 -23 -30
-39 -16 -16 -30 -34 -30 -39 0 -6 -9 -17 -20 -24 -11 -7 -20 -19 -20 -28 0 -8
-4 -12 -10 -9 -5 3 -10 3 -10 -2 0 -4 -23 -33 -51 -63 -102 -110 -123 -139
-109 -155 6 -8 9 -19 5 -25 -9 -14 -35 -13 -35 2 0 6 -11 1 -24 -11 -14 -13
-22 -29 -20 -36 3 -8 -2 -12 -13 -12 -12 1 -17 -4 -15 -15 3 -22 -29 -40 -49
-27 -9 5 -9 9 -2 9 10 0 11 21 4 61 0 4 -10 9 -21 12 -13 3 -20 14 -20 30 0
58 -145 143 -303 178 -45 9 -63 10 -83 0 -23 -10 -29 -9 -46 9 -14 15 -31 20
-69 20 -31 0 -48 -4 -44 -10 3 -5 -1 -10 -9 -10 -9 0 -16 6 -16 14 0 12 -18
15 -89 14 -49 0 -94 3 -99 6 -6 3 -52 6 -104 5 -232 -2 -450 26 -529 66 -16 9
-34 13 -40 9 -6 -3 -21 -2 -32 4 -12 5 -33 14 -47 20 -16 7 -19 11 -9 11 9 1
23 9 30 18 12 15 12 16 -6 11 -11 -3 -26 -7 -34 -9 -8 -2 -17 4 -19 14 -2 12
6 21 27 28 26 9 31 16 31 42 0 18 4 39 10 47 6 9 5 20 -3 29 -7 9 -8 12 -1 8
6 -3 22 5 34 18 13 14 20 25 15 25 -8 0 54 37 115 67 19 10 37 21 40 24 3 3
32 11 64 18 41 9 55 16 45 22 -9 5 7 7 41 4 30 -3 50 -2 43 2 -6 4 30 8 80 8
63 0 91 4 94 13 3 8 -1 10 -13 5 -12 -4 -15 -2 -12 8 3 8 22 15 47 17 28 2 41
0 36 -7 -3 -7 0 -8 9 -5 10 4 16 1 16 -9 0 -9 -10 -18 -22 -20 -13 -2 2 -5 33
-6 31 0 60 4 67 11 9 9 17 7 35 -10 29 -27 37 -28 37 -3 0 11 5 23 10 26 6 4
8 15 5 26 -5 15 -1 19 15 19 18 0 21 -5 18 -32z m-1318 12 c0 -5 -7 -10 -15
-10 -8 0 -15 5 -15 10 0 6 7 10 15 10 8 0 15 -4 15 -10z m435 -4 c-11 -8 -24
-12 -29 -8 -5 3 -1 9 10 13 31 12 39 10 19 -5z m145 4 c0 -5 -4 -10 -9 -10 -6
0 -13 5 -16 10 -3 6 1 10 9 10 9 0 16 -4 16 -10z m684 -6 c3 -8 2 -12 -4 -9
-6 3 -10 10 -10 16 0 14 7 11 14 -7z m-354 -4 c0 -5 -4 -10 -10 -10 -5 0 -10
5 -10 10 0 6 5 10 10 10 6 0 10 -4 10 -10z m35 0 c3 -5 1 -10 -4 -10 -6 0 -11
5 -11 10 0 6 2 10 4 10 3 0 8 -4 11 -10z m455 0 c0 -5 -2 -10 -4 -10 -3 0 -8
5 -11 10 -3 6 -1 10 4 10 6 0 11 -4 11 -10z m490 -1 c0 -6 9 -8 23 -4 21 7 21
6 -5 -20 -25 -26 -28 -27 -43 -11 -15 14 -13 20 7 17 4 0 5 6 2 14 -4 8 -1 15
5 15 6 0 11 -5 11 -11z m80 1 c0 -5 -4 -10 -10 -10 -5 0 -10 5 -10 10 0 6 5
10 10 10 6 0 10 -4 10 -10z m-1590 -10 c0 -5 -2 -10 -4 -10 -3 0 -8 5 -11 10
-3 6 -1 10 4 10 6 0 11 -4 11 -10z m80 0 c0 -5 -4 -10 -10 -10 -5 0 -10 5 -10
10 0 6 5 10 10 10 6 0 10 -4 10 -10z m1590 -1 c0 -23 -47 -32 -52 -10 -4 12 2
16 24 17 15 1 28 -2 28 -7z m-1960 -9 c0 -5 -2 -10 -4 -10 -3 0 -8 5 -11 10
-3 6 -1 10 4 10 6 0 11 -4 11 -10z m507 -5 c0 -8 -4 -15 -9 -15 -4 0 -8 7 -8
15 0 8 4 15 8 15 5 0 9 -7 9 -15z m138 5 c3 -5 2 -10 -4 -10 -5 0 -13 5 -16
10 -3 6 -2 10 4 10 5 0 13 -4 16 -10z m1345 6 c0 -3 -4 -8 -10 -11 -5 -3 -10
-1 -10 4 0 6 5 11 10 11 6 0 10 -2 10 -4z m-2120 -26 c0 -5 -6 -10 -14 -10 -8
0 -18 5 -21 10 -3 6 3 10 14 10 12 0 21 -4 21 -10z m438 -15 c0 -14 -4 -28 -9
-30 -6 -4 -6 39 0 53 4 9 9 -2 9 -23z m1370 16 c10 -6 10 -10 -3 -21 -18 -15
-42 0 -31 19 8 13 16 14 34 2z m-1908 -11 c8 -5 11 -12 7 -17 -5 -4 -12 -1
-16 6 -5 8 -14 10 -21 6 -9 -5 -11 -4 -6 3 9 14 16 15 36 2z m104 -12 c28 2
29 1 8 -8 -33 -14 -66 -6 -71 16 -3 16 -1 17 14 4 10 -8 32 -14 49 -12z m376
12 c0 -5 -7 -7 -15 -4 -8 4 -15 8 -15 10 0 2 7 4 15 4 8 0 15 -4 15 -10z m153
-27 c-3 -9 -9 -11 -15 -5 -5 5 -6 17 -2 26 5 13 9 14 14 5 5 -7 6 -19 3 -26z
m844 11 c-9 -9 -28 6 -21 18 4 6 10 6 17 -1 6 -6 8 -13 4 -17z m263 -6 c0 -19
-16 -5 -17 14 -2 18 0 20 7 8 5 -8 10 -18 10 -22z m353 7 c52 -36 46 -49 -8
-18 -25 13 -45 29 -45 34 0 15 13 11 53 -16z m-573 5 c0 -5 -7 -10 -15 -10 -8
0 -15 5 -15 10 0 6 7 10 15 10 8 0 15 -4 15 -10z m170 0 c0 -5 -4 -10 -10 -10
-5 0 -10 5 -10 10 0 6 5 10 10 10 6 0 10 -4 10 -10z m-1105 -10 c3 -5 2 -10
-4 -10 -5 0 -13 5 -16 10 -3 6 -2 10 4 10 5 0 13 -4 16 -10z m95 -16 c0 -2 -7
-4 -15 -4 -8 0 -15 4 -15 10 0 5 7 7 15 4 8 -4 15 -8 15 -10z m980 6 c0 -5 -4
-10 -9 -10 -6 0 -13 5 -16 10 -3 6 1 10 9 10 9 0 16 -4 16 -10z m80 -14 c0 -3
-4 -8 -10 -11 -5 -3 -10 -1 -10 4 0 6 5 11 10 11 6 0 10 -2 10 -4z m248 -11
c-2 -5 -7 -9 -12 -7 -5 2 -12 -1 -15 -7 -4 -6 -12 -7 -21 -1 -13 8 -12 10 3
10 9 0 17 5 17 11 0 6 7 9 16 7 8 -2 14 -7 12 -13z m-1998 -27 c0 -5 -7 -8
-15 -8 -15 0 -20 21 -8 33 7 7 23 -11 23 -25z m661 25 c-11 -5 -11 -7 0 -15
11 -7 9 -8 -4 -4 -10 3 -26 6 -35 7 -10 1 -7 4 8 9 28 9 52 11 31 3z m1229 -3
c0 -5 -7 -10 -16 -10 -8 0 -12 5 -9 10 3 6 10 10 16 10 5 0 9 -4 9 -10z m160
-10 c0 -5 -7 -10 -15 -10 -8 0 -15 5 -15 10 0 6 7 10 15 10 8 0 15 -4 15 -10z
m100 -34 c-14 -14 -24 0 -16 21 6 15 8 15 16 3 6 -9 5 -19 0 -24z m50 24 c0
-5 -9 -10 -21 -10 -11 0 -17 5 -14 10 3 6 13 10 21 10 8 0 14 -4 14 -10z
m-1859 -27 c-12 -20 -14 -14 -5 12 4 9 9 14 11 11 3 -2 0 -13 -6 -23z m109 7
c0 -5 -5 -10 -11 -10 -5 0 -7 5 -4 10 3 6 8 10 11 10 2 0 4 -4 4 -10z m95 0
c3 -5 1 -10 -4 -10 -6 0 -11 5 -11 10 0 6 2 10 4 10 3 0 8 -4 11 -10z m-229
-23 c-4 -18 -1 -23 14 -23 10 0 16 4 13 9 -2 4 13 6 34 3 21 -2 43 -5 50 -5 6
-1 9 -9 6 -20 -4 -15 -10 -17 -46 -10 -26 4 -47 3 -54 -3 -9 -7 -13 -7 -13 1
0 7 -4 9 -10 6 -5 -3 -10 -3 -11 2 0 4 -2 17 -4 28 -2 11 1 23 8 27 18 12 20
10 13 -15z m1364 2 c0 -6 -4 -7 -10 -4 -5 3 -10 11 -10 16 0 6 5 7 10 4 6 -3
10 -11 10 -16z m510 11 c0 -5 -4 -10 -10 -10 -5 0 -10 5 -10 10 0 6 5 10 10
10 6 0 10 -4 10 -10z m-2230 -10 c0 -5 -7 -10 -16 -10 -8 0 -12 5 -9 10 3 6
10 10 16 10 5 0 9 -4 9 -10z m1965 0 c3 -5 1 -10 -4 -10 -6 0 -11 5 -11 10 0
6 2 10 4 10 3 0 8 -4 11 -10z m565 0 c0 -5 -11 -9 -25 -8 -14 1 -25 6 -25 10
0 4 11 8 25 8 14 0 25 -4 25 -10z m65 0 c3 -5 1 -10 -4 -10 -6 0 -11 5 -11 10
0 6 2 10 4 10 3 0 8 -4 11 -10z m-2648 -27 c-4 -3 -2 -12 4 -19 6 -7 8 -18 4
-24 -9 -14 -28 -1 -21 15 2 7 -1 18 -7 24 -8 8 -6 11 8 11 10 0 15 -3 12 -7z
m1823 -3 c0 -5 -5 -10 -11 -10 -5 0 -7 5 -4 10 3 6 8 10 11 10 2 0 4 -4 4 -10z
m-1153 -15 c0 -8 -6 -15 -14 -15 -17 0 -17 17 0 23 6 3 12 6 13 6 0 1 1 -6 1
-14z m1257 -5 c-10 -4 -21 -6 -24 -3 -8 7 24 22 34 16 5 -4 1 -10 -10 -13z
m-1840 2 c3 -5 3 -18 -1 -30 -4 -18 -7 -19 -19 -7 -8 7 -11 21 -8 29 7 17 20
21 28 8z m1806 -2 c0 -5 -4 -10 -10 -10 -5 0 -10 5 -10 10 0 6 5 10 10 10 6 0
10 -4 10 -10z m90 -5 c-12 -15 -30 -12 -30 6 0 5 10 9 21 9 18 0 19 -2 9 -15z
m-2040 -16 c0 -5 -4 -9 -10 -9 -5 0 -10 7 -10 16 0 8 5 12 10 9 6 -3 10 -10
10 -16z m2130 17 c0 -3 -4 -8 -10 -11 -5 -3 -10 -1 -10 4 0 6 5 11 10 11 6 0
10 -2 10 -4z m530 -6 c-1 -15 -19 -32 -29 -26 -18 12 -12 32 9 32 11 0 20 -3
20 -6z m-590 -10 c0 -5 -4 -10 -10 -10 -5 0 -10 5 -10 10 0 6 5 10 10 10 6 0
10 -4 10 -10z m660 0 c0 -5 -4 -10 -10 -10 -5 0 -10 5 -10 10 0 6 5 10 10 10
6 0 10 -4 10 -10z m106 -2 c4 -6 3 -8 -4 -4 -6 3 -13 2 -17 -4 -4 -6 -11 -7
-18 -3 -9 6 -3 10 30 22 1 1 5 -4 9 -11z m-2228 -23 c6 -14 16 -26 22 -26 5
-1 13 -2 18 -3 4 0 20 -11 36 -24 28 -21 28 -23 11 -41 -9 -11 -14 -24 -11
-29 9 -14 -4 -43 -16 -36 -5 3 -7 13 -4 21 3 8 1 11 -4 8 -6 -3 -10 -2 -10 3
0 6 6 12 13 15 7 2 13 16 15 31 2 24 0 25 -25 15 -14 -5 -28 -7 -31 -4 -3 3 0
5 6 5 21 0 13 15 -17 33 -28 16 -29 16 -34 -3 -3 -11 -1 -23 4 -26 5 -3 9 0 9
6 0 6 5 8 10 5 19 -11 10 -23 -20 -27 -20 -3 -30 0 -30 9 0 7 -7 13 -16 13
-11 0 -14 8 -12 33 3 30 5 32 37 29 22 -2 31 0 26 7 -3 6 -2 11 3 11 5 0 14
-11 20 -25z m122 21 c0 -3 -4 -8 -10 -11 -5 -3 -10 -1 -10 4 0 6 5 11 10 11 6
0 10 -2 10 -4z m1598 -20 c2 -10 -3 -23 -12 -28 -9 -5 -16 -17 -16 -26 -1 -16
-2 -16 -14 1 -7 9 -26 17 -42 18 -27 0 -28 1 -6 9 13 6 22 18 22 30 0 18 5 21
32 18 23 -2 34 -9 36 -22z m-1638 -13 c0 -20 -3 -24 -11 -16 -7 7 -9 19 -6 27
10 24 17 19 17 -11z m1212 5 c-7 -7 -12 -8 -12 -2 0 6 3 14 7 17 3 4 9 5 12 2
2 -3 -1 -11 -7 -17z m98 7 c0 -9 -7 -18 -16 -22 -18 -7 -39 11 -30 26 11 17
46 13 46 -4z m-1960 -14 c0 -11 -26 -22 -34 -14 -12 12 -5 23 14 23 11 0 20
-4 20 -9z m2040 -12 c10 -18 10 -19 -8 -10 -22 12 -32 6 -32 -21 0 -10 -6 -18
-12 -18 -9 0 -8 -4 2 -10 13 -8 12 -10 -3 -10 -20 0 -36 32 -19 38 7 2 12 9
12 16 0 16 21 36 37 36 7 0 17 -9 23 -21z m710 5 c0 -9 -7 -14 -17 -12 -10 1
-23 -1 -30 -5 -6 -4 -14 -3 -18 3 -3 5 1 10 9 10 9 0 16 5 16 10 0 6 9 10 20
10 11 0 20 -7 20 -16z m-650 -4 c0 -5 -7 -10 -16 -10 -8 0 -12 5 -9 10 3 6 10
10 16 10 5 0 9 -4 9 -10z m-2045 -10 c3 -5 1 -10 -4 -10 -6 0 -11 5 -11 10 0
6 2 10 4 10 3 0 8 -4 11 -10z m2798 -3 c4 3 7 1 7 -5 0 -6 -4 -14 -10 -17 -5
-3 -10 -1 -10 4 0 6 -7 11 -16 11 -8 0 -12 5 -9 10 5 8 11 8 19 1 7 -6 16 -8
19 -4z m-2843 -7 c0 -5 -2 -10 -4 -10 -3 0 -8 5 -11 10 -3 6 -1 10 4 10 6 0
11 -4 11 -10z m380 -9 c0 -12 -28 -22 -34 -12 -3 5 -3 11 1 15 9 9 33 7 33 -3z
m70 -1 c0 -5 -12 -10 -27 -9 -25 0 -26 1 -8 9 27 12 35 12 35 0z m1390 0 c0
-5 -4 -10 -9 -10 -6 0 -13 5 -16 10 -3 6 1 10 9 10 9 0 16 -4 16 -10z m90 -31
c0 -6 -65 -49 -76 -49 -2 0 -4 7 -4 15 0 8 6 12 13 9 9 -3 13 3 13 18 -1 14 5
23 14 23 8 1 14 7 12 15 -1 10 3 8 13 -4 8 -11 15 -23 15 -27z m760 27 c0 -3
-4 -8 -10 -11 -5 -3 -10 -1 -10 4 0 6 5 11 10 11 6 0 10 -2 10 -4z m-2720 -17
c0 -5 -4 -8 -9 -5 -5 4 -11 2 -13 -4 -5 -14 -50 -17 -55 -3 -4 10 11 15 65 22
6 0 12 -4 12 -10z m510 7 c0 -3 -4 -8 -10 -11 -5 -3 -10 -1 -10 4 0 6 5 11 10
11 6 0 10 -2 10 -4z m1582 -8 c-9 -9 -15 -9 -24 0 -9 9 -7 12 12 12 19 0 21
-3 12 -12z m246 -5 c-2 -11 -12 -18 -25 -18 -12 0 -25 -3 -29 -7 -10 -11 -24
-10 -24 1 0 11 47 38 68 40 8 1 12 -7 10 -16z m490 -13 c4 -12 2 -13 -9 -2
-22 21 -33 13 -13 -10 l19 -22 -26 20 c-15 10 -25 23 -22 27 8 13 46 3 51 -13z
m-2352 -2 c5 -8 2 -9 -9 -5 -10 3 -17 2 -17 -3 0 -11 10 -13 58 -10 31 2 32 0
20 -19 -16 -25 -30 -28 -21 -3 6 14 4 15 -9 4 -12 -10 -20 -8 -42 9 -21 17
-25 24 -14 30 18 12 26 11 34 -3z m2391 6 c-3 -3 -12 -4 -19 -1 -8 3 -5 6 6 6
11 1 17 -2 13 -5z m-2494 -19 c1 -5 -6 -11 -15 -13 -11 -2 -18 3 -18 13 0 17
30 18 33 0z m2564 9 c-3 -3 -12 -4 -19 -1 -8 3 -5 6 6 6 11 1 17 -2 13 -5z
m-857 -24 c0 -5 -7 -10 -16 -10 -8 0 -12 5 -9 10 3 6 10 10 16 10 5 0 9 -4 9
-10z m-1483 -6 c-3 -3 -12 -4 -19 -1 -8 3 -5 6 6 6 11 1 17 -2 13 -5z m2226
-10 c9 -4 17 -10 17 -15 0 -16 -25 -9 -44 12 -10 12 -12 19 -4 15 7 -3 21 -9
31 -12z m-2893 -24 c0 -5 -2 -10 -4 -10 -3 0 -8 5 -11 10 -3 6 -1 10 4 10 6 0
11 -4 11 -10z m490 6 c0 -3 -4 -8 -10 -11 -5 -3 -10 -1 -10 4 0 6 5 11 10 11
6 0 10 -2 10 -4z m2450 0 c0 -3 -4 -8 -10 -11 -5 -3 -10 -1 -10 4 0 6 5 11 10
11 6 0 10 -2 10 -4z m-2285 -26 c3 -5 1 -10 -4 -10 -6 0 -11 5 -11 10 0 6 2
10 4 10 3 0 8 -4 11 -10z m2128 -3 c7 -19 -18 -38 -32 -24 -6 6 -11 17 -11 24
0 17 36 17 43 0z m-2743 -13 c0 -8 -4 -12 -10 -9 -5 3 -10 10 -10 16 0 5 5 9
10 9 6 0 10 -7 10 -16z m664 -24 c-6 -5 -24 21 -24 34 0 6 6 1 14 -10 8 -10
12 -21 10 -24z m79 25 c4 -8 2 -17 -3 -20 -6 -4 -10 3 -10 14 0 25 6 27 13 6z
m71 -11 c9 -24 8 -25 -13 -12 -11 7 -17 16 -15 20 8 13 21 9 28 -8z m2036 12
c0 -3 -4 -8 -10 -11 -5 -3 -10 -1 -10 4 0 6 5 11 10 11 6 0 10 -2 10 -4z
m-2460 -26 c0 -5 -15 -10 -32 -9 -28 0 -30 2 -13 9 28 12 45 12 45 0z m167
-10 c1 -11 -2 -18 -8 -15 -11 7 -12 35 -1 35 4 0 8 -9 9 -20z m2127 5 c-4 -11
-2 -13 9 -10 11 5 13 0 10 -19 -7 -33 -19 -33 -27 -1 -4 14 -11 25 -17 25 -6
0 -7 5 -4 10 10 16 35 12 29 -5z m176 5 c0 -5 -5 -10 -11 -10 -5 0 -7 5 -4 10
3 6 8 10 11 10 2 0 4 -4 4 -10z m-2160 -15 c10 -12 10 -15 -4 -15 -9 0 -16 7
-16 15 0 8 2 15 4 15 2 0 9 -7 16 -15z m28 -10 c-3 -3 -9 2 -12 12 -6 14 -5
15 5 6 7 -7 10 -15 7 -18z m-98 5 c0 -5 -2 -10 -4 -10 -3 0 -8 5 -11 10 -3 6
-1 10 4 10 6 0 11 -4 11 -10z m-603 -25 c0 -17 -13 -20 -21 -6 -4 5 0 12 6 14
7 3 13 6 14 6 0 1 1 -6 1 -14z m171 -18 c10 -3 5 -5 -11 -6 -17 -1 -26 3 -22
9 3 6 -2 10 -12 11 -16 0 -16 1 2 8 13 6 21 4 23 -5 2 -7 11 -15 20 -17z m582
23 c0 -5 -5 -10 -11 -10 -5 0 -7 5 -4 10 3 6 8 10 11 10 2 0 4 -4 4 -10z m50
-4 c0 -8 -5 -18 -11 -21 -6 -4 -8 -13 -5 -21 3 -7 1 -16 -4 -19 -5 -3 -9 13
-8 35 0 27 5 40 14 40 8 0 14 -6 14 -14z m-414 -23 c-10 -10 -19 5 -10 18 6
11 8 11 12 0 2 -7 1 -15 -2 -18z m184 18 c0 -4 -9 -12 -20 -19 -21 -13 -23
-12 -15 11 6 13 35 20 35 8z m435 -12 c5 -6 4 -9 -3 -9 -7 0 -17 -11 -24 -25
-11 -25 -28 -25 -28 1 0 8 7 14 15 14 8 0 15 5 15 11 0 6 -7 9 -15 5 -8 -3
-15 -1 -15 4 0 5 -8 11 -17 13 -10 2 0 2 22 -1 22 -2 44 -8 50 -13z m-540 1
c3 -5 1 -10 -4 -10 -6 0 -11 5 -11 10 0 6 2 10 4 10 3 0 8 -4 11 -10z m50 0
c3 -5 1 -10 -4 -10 -6 0 -11 5 -11 10 0 6 2 10 4 10 3 0 8 -4 11 -10z m365 0
c0 -5 -4 -10 -10 -10 -5 0 -10 5 -10 10 0 6 5 10 10 10 6 0 10 -4 10 -10z m25
0 c3 -5 1 -10 -4 -10 -6 0 -11 5 -11 10 0 6 2 10 4 10 3 0 8 -4 11 -10z m355
0 c0 -5 -4 -10 -10 -10 -5 0 -10 5 -10 10 0 6 5 10 10 10 6 0 10 -4 10 -10z
m1480 -5 c10 -12 9 -16 -3 -21 -9 -3 -13 -13 -9 -26 4 -17 2 -20 -12 -15 -10
4 -22 7 -28 7 -7 0 -6 5 1 14 9 11 9 15 0 18 -19 6 -2 38 19 38 11 0 25 -7 32
-15z m-2684 -20 c16 -12 16 -14 3 -15 -9 0 -22 7 -29 15 -16 19 0 19 26 0z
m683 6 c9 -1 11 -9 8 -24 -8 -31 7 -56 20 -33 12 21 67 12 59 -9 -3 -8 2 -16
11 -19 9 -4 13 -9 9 -13 -9 -9 -85 -10 -79 0 2 4 -4 10 -13 14 -10 4 -19 2
-22 -5 -2 -7 -8 -12 -13 -12 -6 0 -6 8 1 19 7 14 7 22 -1 27 -8 5 -6 10 5 16
9 5 16 13 16 18 0 9 -11 8 -62 -5 -22 -6 -28 -4 -28 10 0 9 4 14 9 10 5 -3 12
-1 15 3 3 5 15 8 28 6 13 -1 29 -3 37 -3z m351 -9 c0 -24 -34 -52 -51 -42 -7
5 -17 6 -23 3 -5 -3 -6 -1 -2 5 4 7 14 12 22 12 8 0 12 5 9 10 -3 6 0 10 9 10
8 0 17 -6 20 -12 3 -7 3 -3 0 10 -3 12 -1 22 5 22 6 0 11 -8 11 -18z m654 9
c11 -4 15 -10 10 -13 -5 -4 -20 0 -34 8 -26 14 -9 18 24 5z m46 -1 c0 -5 -4
-10 -10 -10 -5 0 -10 5 -10 10 0 6 5 10 10 10 6 0 10 -4 10 -10z m840 1 c0 -5
-7 -11 -15 -15 -9 -3 -15 0 -15 9 0 8 7 15 15 15 8 0 15 -4 15 -9z m-2426 -22
c-3 -5 0 -16 6 -24 8 -10 9 -15 2 -15 -6 0 -16 9 -22 20 -8 14 -8 20 0 20 6 0
8 5 4 12 -4 7 -3 8 5 4 6 -4 9 -12 5 -17z m185 8 c11 4 10 1 -4 -10 -18 -14
-18 -16 -2 -13 10 1 22 9 27 16 14 23 22 5 11 -24 -8 -19 -17 -25 -35 -24 -14
1 -22 7 -19 12 4 5 -1 7 -11 3 -29 -11 -37 2 -19 28 10 13 22 20 27 15 5 -5
16 -6 25 -3z m89 -22 c2 -19 -2 -35 -8 -35 -5 0 -10 5 -10 11 0 5 -4 8 -9 4
-19 -11 -21 14 -4 35 24 28 29 25 31 -15z m152 25 c0 -5 -2 -10 -4 -10 -3 0
-8 5 -11 10 -3 6 -1 10 4 10 6 0 11 -4 11 -10z m702 -5 c0 -5 -5 -11 -11 -13
-6 -2 -11 4 -11 13 0 9 5 15 11 13 6 -2 11 -8 11 -13z m177 -33 c-10 -2 -17
-7 -14 -12 3 -4 -2 -10 -10 -14 -11 -4 -15 2 -15 28 0 44 8 50 36 23 22 -21
22 -22 3 -25z m1151 44 c0 -3 -4 -8 -10 -11 -5 -3 -10 -1 -10 4 0 6 5 11 10
11 6 0 10 -2 10 -4z m-1254 -21 c-3 -8 0 -15 6 -15 6 0 8 -3 5 -6 -9 -9 -38
16 -31 27 9 15 26 10 20 -6z m295 -18 c-8 -8 -11 -7 -11 4 0 9 3 19 7 23 4 4
9 2 11 -4 3 -7 -1 -17 -7 -23z m239 23 c0 -5 -4 -10 -10 -10 -5 0 -10 5 -10
10 0 6 5 10 10 10 6 0 10 -4 10 -10z m-1786 -9 c3 -5 -5 -8 -19 -7 -14 0 -25
4 -25 9 0 10 38 9 44 -2z m434 -18 c2 -11 -4 -25 -12 -32 -12 -10 -14 -6 -13
24 1 37 20 43 25 8z m1192 17 c0 -5 -2 -10 -4 -10 -3 0 -8 5 -11 10 -3 6 -1
10 4 10 6 0 11 -4 11 -10z m-563 -6 c-3 -3 -12 -4 -19 -1 -8 3 -5 6 6 6 11 1
17 -2 13 -5z m558 -22 c-7 -8 -35 7 -35 18 0 6 7 6 20 -2 10 -7 17 -14 15 -16z
m-602 5 c4 3 7 1 7 -5 0 -6 -4 -14 -10 -17 -5 -3 -10 -2 -10 4 0 6 -7 8 -15 5
-8 -4 -15 -2 -15 3 0 17 13 23 25 13 7 -5 15 -7 18 -3z m647 3 c0 -5 -4 -10
-10 -10 -5 0 -10 5 -10 10 0 6 5 10 10 10 6 0 10 -4 10 -10z m-1130 -11 c0
-11 -27 -18 -49 -12 -33 8 -25 20 14 19 19 -1 35 -4 35 -7z m243 -3 c4 -10 1
-13 -8 -9 -8 3 -12 9 -9 14 7 12 11 11 17 -5z m987 4 c0 -5 -2 -10 -4 -10 -3
0 -8 5 -11 10 -3 6 -1 10 4 10 6 0 11 -4 11 -10z m678 -9 c3 -8 -1 -12 -9 -9
-7 2 -15 10 -17 17 -3 8 1 12 9 9 7 -2 15 -10 17 -17z m-1588 -1 c0 -5 -2 -10
-4 -10 -3 0 -8 5 -11 10 -3 6 -1 10 4 10 6 0 11 -4 11 -10z m-960 -10 c0 -5
-2 -10 -4 -10 -3 0 -8 5 -11 10 -3 6 -1 10 4 10 6 0 11 -4 11 -10z m1710 0 c0
-5 -4 -10 -10 -10 -5 0 -10 5 -10 10 0 6 5 10 10 10 6 0 10 -4 10 -10z m336
-6 c-16 -15 -36 -19 -36 -6 0 13 7 18 30 19 18 2 18 0 6 -13z m-1873 -11 c4
-2 7 -8 7 -14 0 -15 -37 -10 -44 6 -3 8 -10 15 -16 15 -6 0 -8 -4 -5 -10 3 -5
1 -10 -4 -10 -12 0 -15 13 -5 23 7 6 49 0 67 -10z m67 13 c0 -3 -4 -8 -10 -11
-5 -3 -10 -1 -10 4 0 6 5 11 10 11 6 0 10 -2 10 -4z m30 -39 c0 -4 -6 -2 -14
5 -8 7 -12 17 -9 22 5 8 23 -12 23 -27z m690 3 c-11 -20 -52 -17 -71 6 -9 12
-6 13 20 8 20 -4 31 -2 31 4 0 6 7 9 15 6 11 -4 12 -11 5 -24z m586 15 c-11
-8 -22 -12 -25 -9 -6 6 19 24 34 24 6 -1 1 -7 -9 -15z m1038 -17 c-15 -15 -30
-26 -32 -23 -10 10 -41 -16 -36 -30 7 -17 -13 -20 -36 -5 -13 8 -13 10 1 10
23 0 44 26 27 33 -7 2 -9 8 -5 13 4 5 11 3 15 -3 5 -8 16 -4 35 11 42 33 64
29 31 -6z m-2236 -5 c-19 -44 -40 -66 -50 -51 -12 19 -10 28 7 28 8 0 15 9 15
19 0 17 11 28 32 30 4 1 2 -11 -4 -26z m1392 17 c0 -5 -4 -10 -9 -10 -6 0 -13
5 -16 10 -3 6 1 10 9 10 9 0 16 -4 16 -10z m171 -6 c10 -13 10 -17 -2 -24 -10
-7 -6 -11 19 -16 22 -5 29 -9 21 -15 -21 -12 -96 42 -84 61 9 15 31 12 46 -6z
m209 9 c-1 -18 -18 -35 -24 -24 -4 6 -2 11 4 11 6 0 8 5 5 10 -3 6 -1 10 4 10
6 0 11 -3 11 -7z m380 -3 c-20 -13 -33 -13 -25 0 3 6 14 10 23 10 15 0 15 -2
2 -10z m-2124 -24 c-4 -18 -1 -25 14 -29 20 -5 24 3 20 33 -1 10 2 12 8 5 6
-5 8 -23 5 -38 -4 -22 -9 -26 -26 -21 -35 11 -46 26 -34 51 13 30 21 29 13 -1z
m114 -7 c0 -5 -9 -9 -20 -9 -22 0 -23 1 -14 24 5 13 9 14 20 5 8 -6 14 -15 14
-20z m40 21 c0 -5 -5 -10 -11 -10 -5 0 -7 5 -4 10 3 6 8 10 11 10 2 0 4 -4 4
-10z m638 -13 c2 -12 -3 -17 -17 -17 -12 0 -21 6 -21 13 0 31 32 34 38 4z
m-584 -27 c-6 -5 -24 21 -24 34 0 6 6 1 14 -10 8 -10 12 -21 10 -24z m516 30
c0 -5 -5 -10 -11 -10 -5 0 -7 5 -4 10 3 6 8 10 11 10 2 0 4 -4 4 -10z m210
-11 c0 -6 -4 -8 -9 -5 -5 4 -11 0 -14 -6 -2 -7 -8 -10 -12 -6 -9 8 17 38 28
31 4 -2 7 -9 7 -14z m320 11 c0 -5 -4 -10 -10 -10 -5 0 -10 5 -10 10 0 6 5 10
10 10 6 0 10 -4 10 -10z m70 -11 c0 -5 -4 -9 -10 -9 -5 0 -10 7 -10 16 0 8 5
12 10 9 6 -3 10 -10 10 -16z m-700 1 c0 -5 -4 -10 -10 -10 -5 0 -10 5 -10 10
0 6 5 10 10 10 6 0 10 -4 10 -10z m-220 -9 c0 -12 -20 -25 -27 -18 -7 7 6 27
18 27 5 0 9 -4 9 -9z m40 -12 c0 -6 -4 -7 -10 -4 -5 3 -10 11 -10 16 0 6 5 7
10 4 6 -3 10 -11 10 -16z m220 11 c0 -5 -4 -10 -10 -10 -5 0 -10 5 -10 10 0 6
5 10 10 10 6 0 10 -4 10 -10z m417 -6 c8 -20 -17 -36 -34 -22 -10 8 -10 14 -2
24 15 18 28 18 36 -2z m378 6 c3 -5 1 -10 -4 -10 -6 0 -11 5 -11 10 0 6 2 10
4 10 3 0 8 -4 11 -10z m-460 -10 c-3 -5 -11 -10 -16 -10 -6 0 -7 5 -4 10 3 6
11 10 16 10 6 0 7 -4 4 -10z m130 0 c-3 -5 -1 -10 5 -10 6 0 8 -5 4 -11 -4 -8
-9 -7 -15 2 -12 19 -11 29 2 29 5 0 7 -4 4 -10z m-1061 -15 c-4 -8 -8 -15 -10
-15 -2 0 -4 7 -4 15 0 8 4 15 10 15 5 0 7 -7 4 -15z m1546 11 c0 -3 -4 -8 -10
-11 -5 -3 -10 -1 -10 4 0 6 5 11 10 11 6 0 10 -2 10 -4z m83 -23 c3 -16 4 -29
2 -31 -6 -6 -35 30 -35 44 0 26 28 15 33 -13z m50 13 c6 -15 -1 -26 -15 -26
-4 0 -8 9 -8 20 0 23 15 27 23 6z m-993 -6 c0 -5 -4 -10 -10 -10 -5 0 -10 5
-10 10 0 6 5 10 10 10 6 0 10 -4 10 -10z m470 -11 c0 -15 35 -46 48 -41 7 2
12 -1 12 -7 0 -6 -7 -11 -15 -11 -9 0 -12 -6 -8 -16 5 -13 2 -15 -17 -9 -15 5
-20 4 -16 -4 4 -6 0 -11 -8 -11 -9 0 -16 5 -16 11 0 6 -7 9 -15 5 -8 -3 -15
-1 -15 4 0 6 3 10 8 10 13 0 30 50 24 72 -3 14 -2 19 6 14 7 -4 12 -11 12 -17z
m850 11 c0 -5 -4 -10 -10 -10 -5 0 -10 5 -10 10 0 6 5 10 10 10 6 0 10 -4 10
-10z m-1690 -34 c-13 -13 -35 7 -25 24 5 8 11 8 21 -1 10 -8 12 -15 4 -23z
m565 24 c3 -5 1 -10 -4 -10 -6 0 -11 5 -11 10 0 6 2 10 4 10 3 0 8 -4 11 -10z
m505 5 c0 -3 -12 -16 -27 -29 -23 -20 -25 -26 -14 -40 7 -9 23 -14 35 -12 11
2 15 1 9 -1 -7 -3 -13 -9 -13 -14 0 -5 -12 -6 -26 -3 -17 4 -29 2 -35 -7 -8
-11 -13 -10 -28 9 -11 12 -26 22 -35 22 -9 0 -16 5 -16 10 0 14 37 13 42 -1 3
-9 11 -8 28 2 25 13 25 14 3 17 -14 2 -20 8 -16 18 4 11 9 12 19 3 10 -8 17
-5 31 10 16 19 43 29 43 16z m170 -5 c0 -5 -5 -10 -11 -10 -5 0 -7 5 -4 10 3
6 8 10 11 10 2 0 4 -4 4 -10z m-430 -14 c0 -3 -4 -8 -10 -11 -5 -3 -10 -1 -10
4 0 6 5 11 10 11 6 0 10 -2 10 -4z m97 -2 c-3 -3 -12 -4 -19 -1 -8 3 -5 6 6 6
11 1 17 -2 13 -5z m-733 -35 c-2 -4 0 -10 6 -14 5 -3 10 -15 10 -26 0 -25 -41
-26 -63 -1 -13 14 -14 21 -5 30 7 7 18 12 25 12 7 0 12 3 12 8 -3 19 2 26 10
12 6 -8 8 -17 5 -21z m135 10 c-16 -10 -23 -4 -14 10 3 6 11 8 17 5 6 -4 5 -9
-3 -15z m824 -21 c-9 -15 -23 -8 -23 12 0 17 2 19 14 8 8 -7 12 -16 9 -20z
m132 22 c-3 -5 -1 -10 5 -10 6 0 8 -5 4 -11 -4 -8 -9 -7 -15 2 -12 19 -11 29
2 29 5 0 7 -4 4 -10z m158 -33 c-3 -5 -12 -2 -20 6 -9 8 -12 20 -8 27 5 8 11
6 20 -7 7 -10 11 -22 8 -26z m22 33 c3 -5 1 -10 -4 -10 -6 0 -11 5 -11 10 0 6
2 10 4 10 3 0 8 -4 11 -10z m145 -19 c-13 -24 -3 -27 24 -6 19 15 46 21 33 8
-4 -3 -2 -12 4 -19 8 -10 5 -15 -16 -20 -20 -5 -23 -9 -13 -15 17 -11 5 -11
-25 0 -30 12 -42 57 -18 71 21 12 25 6 11 -19z m-1640 9 c0 -5 -4 -10 -10 -10
-5 0 -10 5 -10 10 0 6 5 10 10 10 6 0 10 -4 10 -10z m710 -16 c0 -8 -9 -14
-20 -14 -19 0 -27 19 -14 33 10 9 34 -4 34 -19z m730 -36 c0 -7 -9 -2 -20 10
-12 12 -28 22 -37 22 -12 0 -13 3 -4 14 10 12 16 10 36 -10 14 -14 25 -30 25
-36z m-1851 25 c-12 -15 -12 -16 4 -10 9 3 17 2 17 -4 0 -5 -8 -13 -17 -16
-10 -4 -22 -11 -26 -17 -6 -7 -7 -4 -3 6 3 10 -2 22 -12 28 -16 11 -16 11 1 6
10 -3 22 2 29 14 7 10 14 17 17 15 2 -3 -2 -12 -10 -22z m168 7 c-1 -11 -5
-20 -9 -20 -4 0 -8 9 -8 20 0 11 4 20 9 20 6 0 9 -9 8 -20z m98 10 c3 -5 1
-10 -4 -10 -6 0 -11 5 -11 10 0 6 2 10 4 10 3 0 8 -4 11 -10z m555 -10 c0 -5
-4 -10 -10 -10 -5 0 -10 5 -10 10 0 6 5 10 10 10 6 0 10 -4 10 -10z m210 -5
c0 -8 -4 -15 -9 -15 -13 0 -22 16 -14 24 11 11 23 6 23 -9z m190 11 c0 -2 3
-12 6 -21 5 -12 2 -16 -12 -14 -10 2 -24 0 -31 -4 -15 -9 -45 2 -37 14 3 6 14
7 24 4 11 -3 20 0 24 10 5 13 26 22 26 11z m-375 -16 c3 -5 1 -10 -4 -10 -6 0
-11 5 -11 10 0 6 2 10 4 10 3 0 8 -4 11 -10z m-395 -44 c0 -5 -7 -1 -15 10 -8
10 -14 24 -14 29 0 6 6 1 14 -9 8 -11 15 -24 15 -30z m540 18 c0 -9 -5 -14
-12 -12 -18 6 -21 28 -4 28 9 0 16 -7 16 -16z m897 -11 c-3 -16 -9 -27 -15
-26 -7 2 -9 -4 -5 -15 6 -15 5 -15 -11 -2 -17 14 -17 15 1 30 11 8 18 21 15
28 -2 6 1 12 8 12 6 0 9 -11 7 -27z m113 17 c0 -5 -4 -10 -10 -10 -5 0 -10 5
-10 10 0 6 5 10 10 10 6 0 10 -4 10 -10z m-1795 -52 c14 0 25 -5 25 -10 0 -5
8 -8 18 -7 9 1 24 0 32 -4 37 -14 80 -16 80 -4 0 9 3 8 9 -1 11 -19 149 -30
469 -38 249 -7 272 -6 272 9 0 22 17 22 23 0 3 -12 5 -10 6 7 1 19 4 21 10 11
5 -8 7 -20 4 -28 -6 -16 19 -17 36 0 11 10 13 10 7 0 -5 -10 3 -13 30 -13 69
0 249 -31 290 -50 23 -10 53 -33 68 -50 14 -17 30 -28 36 -25 5 3 10 1 10 -4
0 -6 -3 -11 -7 -11 -14 0 -31 -49 -27 -73 4 -19 3 -20 -7 -6 -12 15 -16 15
-51 -8 -21 -14 -38 -33 -38 -41 0 -12 -3 -13 -11 -5 -13 13 -141 -29 -148 -48
-2 -7 -6 -8 -10 -1 -4 7 -23 7 -56 1 -115 -22 -285 -2 -285 34 0 7 -13 26 -30
40 -22 20 -30 23 -30 12 0 -13 -2 -14 -14 -3 -8 7 -13 18 -13 23 1 6 -6 9 -15
9 -10 -1 -16 2 -13 6 3 5 -14 15 -37 24 -93 34 -155 46 -230 46 -75 0 -84 -4
-79 -32 2 -12 -13 -9 -34 6 -17 12 -24 12 -46 1 -31 -16 -57 -45 -40 -45 6 0
11 5 11 11 0 8 5 8 15 -1 8 -7 12 -16 9 -21 -9 -16 -67 -2 -85 20 -11 13 -19
17 -21 9 -3 -7 -10 -8 -17 -4 -11 7 -11 10 0 16 16 10 -78 119 -103 119 -10 1
-18 6 -18 12 0 5 5 7 12 3 7 -4 8 -3 4 4 -4 6 -14 8 -23 5 -12 -5 -15 -2 -10
9 9 24 -16 52 -40 46 -17 -5 -21 -1 -18 18 1 14 -7 32 -21 45 -38 36 -28 40
26 12 27 -14 61 -25 75 -25z m65 42 c0 -5 -2 -10 -4 -10 -3 0 -8 5 -11 10 -3
6 -1 10 4 10 6 0 11 -4 11 -10z m787 -15 c0 -8 -4 -15 -9 -15 -10 0 -11 14 -1
23 9 10 10 9 10 -8z m506 -5 c4 0 7 -8 5 -17 -2 -12 4 -19 20 -21 32 -5 27
-18 -9 -26 -45 -9 -61 -7 -54 5 4 6 13 8 21 5 20 -8 17 0 -8 23 -13 12 -26 17
-32 12 -6 -4 -21 -10 -32 -13 -18 -5 -21 -2 -16 16 7 30 19 35 61 25 20 -5 40
-9 44 -9z m-763 0 c0 -5 -4 -10 -10 -10 -5 0 -10 5 -10 10 0 6 5 10 10 10 6 0
10 -4 10 -10z m810 6 c0 -3 -4 -8 -10 -11 -5 -3 -10 -1 -10 4 0 6 5 11 10 11
6 0 10 -2 10 -4z m-1585 -16 c3 -5 -1 -10 -9 -10 -9 0 -16 5 -16 10 0 6 4 10
9 10 6 0 13 -4 16 -10z m580 1 c11 -5 25 -4 32 1 8 6 6 -3 -3 -22 l-16 -31
-24 22 c-36 34 -32 47 11 30z m545 5 c0 -2 -3 -11 -6 -20 -5 -13 -8 -13 -20
-1 -19 19 -18 25 6 25 11 0 20 -2 20 -4z m-439 -33 c-12 -20 -14 -14 -5 12 4
9 9 14 11 11 3 -2 0 -13 -6 -23z m293 11 c5 -14 4 -15 -9 -4 -17 14 -19 20 -6
20 5 0 12 -7 15 -16z m631 6 c3 -5 1 -10 -4 -10 -6 0 -11 5 -11 10 0 6 2 10 4
10 3 0 8 -4 11 -10z m-945 -10 c0 -5 -5 -10 -11 -10 -5 0 -7 5 -4 10 3 6 8 10
11 10 2 0 4 -4 4 -10z m118 -2 c-2 -6 -10 -14 -16 -16 -7 -2 -10 2 -6 12 7 18
28 22 22 4z m-388 -8 c0 -5 -5 -10 -11 -10 -5 0 -7 5 -4 10 3 6 8 10 11 10 2
0 4 -4 4 -10z m1005 0 c-3 -5 -13 -10 -21 -10 -8 0 -14 5 -14 10 0 6 9 10 21
10 11 0 17 -4 14 -10z m266 -8 c-7 -2 -18 1 -23 6 -8 8 -4 9 13 5 13 -4 18 -8
10 -11z m129 2 c0 -8 -4 -12 -10 -9 -5 3 -10 10 -10 16 0 5 5 9 10 9 6 0 10
-7 10 -16z m-1715 -3 c3 -5 1 -12 -4 -15 -5 -3 -11 1 -15 9 -6 16 9 21 19 6z
m1239 -15 c-3 -9 -10 -16 -15 -16 -6 0 -5 9 1 21 13 24 24 20 14 -5z m661 7
c12 1 20 -4 20 -13 0 -18 -65 -16 -76 2 -12 18 0 29 20 19 9 -5 26 -9 36 -8z
m-1921 -20 c17 -15 23 -24 14 -20 -9 3 -19 1 -22 -6 -2 -7 -5 -3 -5 9 -1 12
-11 26 -23 32 -13 6 -17 11 -9 11 7 1 27 -11 45 -26z m1143 21 c-3 -3 -12 -4
-19 -1 -8 3 -5 6 6 6 11 1 17 -2 13 -5z m545 -39 c-5 -29 -18 -33 -25 -7 -3
11 -5 9 -6 -8 -1 -19 -4 -21 -10 -11 -12 18 -3 41 15 41 8 0 14 5 14 11 0 5 4
8 9 5 4 -3 6 -17 3 -31z m-1752 15 c0 -5 -4 -10 -10 -10 -5 0 -10 5 -10 10 0
6 5 10 10 10 6 0 10 -4 10 -10z m1440 -10 c0 -9 -8 -16 -20 -16 -12 0 -20 7
-20 16 0 9 8 16 20 16 12 0 20 -7 20 -16z m450 10 c0 -5 -15 -10 -34 -10 -19
0 -38 5 -41 10 -4 6 10 10 34 10 23 0 41 -4 41 -10z m-1910 -20 c13 0 17 -5
13 -20 -5 -20 -7 -20 -24 -4 -11 9 -19 24 -18 33 0 10 2 12 6 4 2 -7 13 -13
23 -13z m160 10 c0 -5 -4 -10 -10 -10 -5 0 -10 5 -10 10 0 6 5 10 10 10 6 0
10 -4 10 -10z m1540 0 c0 -5 -5 -10 -11 -10 -5 0 -7 5 -4 10 3 6 8 10 11 10 2
0 4 -4 4 -10z m-150 -31 c-7 -11 -14 -19 -16 -16 -7 7 7 37 17 37 6 0 5 -9 -1
-21z m-1503 -27 c1 -12 -2 -22 -8 -22 -5 0 -8 4 -4 9 3 5 1 12 -5 16 -14 9
-13 28 2 23 6 -2 13 -14 15 -26z m1630 22 c-3 -3 -12 -4 -19 -1 -8 3 -5 6 6 6
11 1 17 -2 13 -5z m-1530 -16 c16 -21 23 -48 13 -48 -6 0 -10 10 -10 23 -1 20
-2 20 -11 5 -5 -10 -18 -18 -27 -18 -15 1 -14 3 3 17 16 13 17 15 3 10 -18 -6
-24 3 -11 16 10 11 30 8 40 -5z m1623 -32 c0 -3 -9 -6 -20 -6 -22 0 -23 1 -14
24 5 13 8 13 20 1 8 -7 14 -16 14 -19z m125 14 c3 -5 1 -10 -4 -10 -6 0 -11 5
-11 10 0 6 2 10 4 10 3 0 8 -4 11 -10z m-55 -19 c0 -6 -4 -12 -8 -15 -5 -3 -9
1 -9 9 0 8 4 15 9 15 4 0 8 -4 8 -9z m78 -29 c2 -7 -3 -12 -12 -12 -9 0 -16 7
-16 16 0 17 22 14 28 -4z m-1758 -7 c0 -6 -3 -14 -6 -18 -8 -8 -55 14 -49 23
8 12 55 8 55 -5z m50 3 c0 -7 -5 -20 -10 -28 -7 -12 -12 -12 -22 -2 -9 9 -9
12 5 12 9 0 16 3 16 8 -2 12 1 22 6 22 3 0 5 -6 5 -12z m60 2 c0 -5 -2 -10 -4
-10 -3 0 -8 5 -11 10 -3 6 -1 10 4 10 6 0 11 -4 11 -10z m1459 1 c9 -6 10 -11
2 -15 -6 -4 -16 -4 -22 -1 -6 4 -17 -1 -24 -11 -13 -17 -16 -17 -25 -4 -15 23
-12 33 10 27 11 -3 23 -1 26 4 7 11 15 11 33 0z m143 -26 c0 -5 -5 -11 -11
-13 -6 -2 -11 4 -11 13 0 9 5 15 11 13 6 -2 11 -8 11 -13z m-72 -8 c0 -19 -10
-27 -26 -20 -21 8 -17 33 6 33 11 0 20 -6 20 -13z m-1097 -24 c-5 -12 -7 -12
-14 -1 -13 20 -11 28 5 22 8 -3 12 -12 9 -21z m-145 -5 c-2 -6 -10 -14 -16
-16 -7 -2 -10 2 -6 12 7 18 28 22 22 4z m-363 -17 c-8 -14 -45 -14 -45 0 0 6
9 9 20 6 11 -3 20 0 20 6 0 6 3 8 6 4 3 -3 3 -10 -1 -16z m40 9 c-3 -5 -10
-10 -16 -10 -5 0 -9 5 -9 10 0 6 7 10 16 10 8 0 12 -4 9 -10z m399 -15 c-4 -8
-8 -15 -10 -15 -2 0 -4 7 -4 15 0 8 4 15 10 15 5 0 7 -7 4 -15z m996 5 c0 -5
-5 -10 -11 -10 -5 0 -7 5 -4 10 3 6 8 10 11 10 2 0 4 -4 4 -10z m-1330 -20 c0
-5 -4 -10 -10 -10 -5 0 -10 5 -10 10 0 6 5 10 10 10 6 0 10 -4 10 -10z m240
-11 c11 -19 10 -20 -9 -9 -22 11 -29 30 -11 30 5 0 14 -9 20 -21z m309 -1
c-14 -25 -25 -29 -39 -13 -16 19 -4 35 25 33 19 -2 22 -6 14 -20z m-149 2 c13
-8 13 -10 -1 -10 -23 0 -44 -26 -27 -33 8 -2 9 -8 4 -13 -5 -5 -11 -4 -13 3
-3 9 -14 6 -36 -10 -48 -34 -66 -33 -33 2 16 17 33 28 38 25 14 -9 38 16 31
32 -6 16 15 18 37 4z m50 0 c0 -5 -4 -10 -10 -10 -5 0 -10 5 -10 10 0 6 5 10
10 10 6 0 10 -4 10 -10z m940 -22 c0 -5 -5 -8 -11 -8 -5 0 -7 5 -4 10 3 6 1
10 -5 10 -6 0 -8 5 -4 11 6 11 23 -6 24 -23z m69 -4 c-15 -18 -28 -18 -36 2
-8 20 17 36 34 22 10 -8 10 -14 2 -24z m-1419 12 c0 -3 -4 -8 -10 -11 -5 -3
-10 -1 -10 4 0 6 5 11 10 11 6 0 10 -2 10 -4z m76 -7 c4 -7 0 -9 -14 -5 -15 5
-22 2 -27 -14 -4 -12 -13 -20 -21 -18 -18 4 -19 23 -1 23 6 0 16 6 20 13 10
15 33 16 43 1z m201 5 c-3 -3 -12 -4 -19 -1 -8 3 -5 6 6 6 11 1 17 -2 13 -5z
m-137 -14 c0 -5 -4 -10 -10 -10 -5 0 -10 5 -10 10 0 6 5 10 10 10 6 0 10 -4
10 -10z m70 -20 c0 -5 -4 -10 -10 -10 -5 0 -10 5 -10 10 0 6 5 10 10 10 6 0
10 -4 10 -10z m1020 0 c0 -5 -4 -10 -10 -10 -5 0 -10 5 -10 10 0 6 5 10 10 10
6 0 10 -4 10 -10z m-645 -20 c0 -8 -10 -16 -22 -18 -20 -3 -22 2 -14 36 3 11
36 -6 36 -18z m-220 0 c-3 -5 -14 -10 -23 -10 -15 0 -15 2 -2 10 20 13 33 13
25 0z m155 6 c0 -3 -4 -8 -10 -11 -5 -3 -10 -1 -10 4 0 6 5 11 10 11 6 0 10
-2 10 -4z m605 -6 c3 -5 -1 -10 -9 -10 -9 0 -16 5 -16 10 0 6 4 10 9 10 6 0
13 -4 16 -10z m185 -10 c-24 -15 -37 -11 -16 5 11 8 22 12 25 9 3 -3 -1 -9 -9
-14z m-849 -13 c-1 -12 -15 -9 -19 4 -3 6 1 10 8 8 6 -3 11 -8 11 -12z m149 3
c0 -5 -5 -10 -11 -10 -5 0 -7 5 -4 10 3 6 8 10 11 10 2 0 4 -4 4 -10z m-515
-10 c3 -5 2 -10 -4 -10 -5 0 -13 5 -16 10 -3 6 -2 10 4 10 5 0 13 -4 16 -10z
m1055 0 c0 -5 -4 -10 -10 -10 -5 0 -10 5 -10 10 0 6 5 10 10 10 6 0 10 -4 10
-10z m-1137 -12 c-23 -11 -32 -38 -13 -38 20 0 10 -26 -10 -27 -16 -1 -20 3
-15 17 3 10 0 22 -7 26 -8 5 -3 12 17 20 36 16 59 17 28 2z m305 -7 c3 -8 -1
-12 -9 -9 -7 2 -15 10 -17 17 -3 8 1 12 9 9 7 -2 15 -10 17 -17z m667 -1 c3
-5 1 -10 -4 -10 -6 0 -11 5 -11 10 0 6 2 10 4 10 3 0 8 -4 11 -10z m105 -10
c0 -5 -4 -10 -10 -10 -5 0 -10 5 -10 10 0 6 5 10 10 10 6 0 10 -4 10 -10z m57
-10 c3 -10 2 -11 -4 -4 -4 6 -15 14 -23 17 -11 5 -9 6 4 4 11 -1 21 -9 23 -17z
m-1077 -5 c-10 -12 -10 -15 0 -15 8 0 11 -2 8 -5 -4 -4 -68 23 -68 29 0 1 16
3 37 4 32 3 35 1 23 -13z m132 5 c7 0 6 -5 -1 -14 -9 -11 -9 -15 0 -18 20 -7
2 -38 -21 -38 -22 0 -41 31 -23 37 6 2 8 14 5 25 -4 17 -2 20 12 15 10 -4 22
-7 28 -7z m363 0 c3 -5 -1 -10 -9 -10 -9 0 -16 5 -16 10 0 6 4 10 9 10 6 0 13
-4 16 -10z m285 -36 c0 -6 -6 -16 -12 -22 -10 -7 -18 -3 -31 14 -15 20 -16 24
-3 24 10 0 13 6 9 16 -5 14 -3 13 15 -2 12 -10 22 -24 22 -30z m341 13 c-8 -8
-11 -7 -11 4 0 9 3 19 7 23 4 4 9 2 11 -4 3 -7 -1 -17 -7 -23z m-66 13 c3 -5
1 -10 -4 -10 -6 0 -11 5 -11 10 0 6 2 10 4 10 3 0 8 -4 11 -10z m-155 -10 c0
-5 -4 -10 -10 -10 -5 0 -10 5 -10 10 0 6 5 10 10 10 6 0 10 -4 10 -10z m-720
-10 c0 -5 -5 -10 -11 -10 -5 0 -7 5 -4 10 3 6 8 10 11 10 2 0 4 -4 4 -10z m40
-5 c0 -8 -7 -15 -15 -15 -26 0 -18 20 13 29 1 1 2 -6 2 -14z m896 -12 c-7 -8
-56 9 -51 18 3 4 17 3 30 -3 14 -6 23 -13 21 -15z m-304 -5 c-7 -7 -12 -8 -12
-2 0 6 3 14 7 17 3 4 9 5 12 2 2 -3 -1 -11 -7 -17z m203 -4 c0 -10 -8 -20 -18
-22 -22 -4 -35 27 -16 39 20 12 34 5 34 -17z m35 16 c0 -5 -4 -10 -10 -10 -5
0 -10 5 -10 10 0 6 5 10 10 10 6 0 10 -4 10 -10z m-679 -10 c21 -12 26 -40 7
-40 -21 1 -51 28 -43 39 8 14 11 14 36 1z m69 -21 c0 -9 -30 -20 -31 -11 0 4
-2 15 -4 24 -3 14 0 15 16 5 10 -6 19 -15 19 -18z m116 16 c-3 -9 0 -15 9 -15
8 0 15 -4 15 -10 0 -13 -27 -13 -35 0 -7 12 0 40 11 40 3 0 4 -7 0 -15z m604
-5 c0 -5 -4 -10 -9 -10 -6 0 -13 5 -16 10 -3 6 1 10 9 10 9 0 16 -4 16 -10z
m-986 -25 c6 -25 46 -37 46 -14 0 5 4 8 9 4 5 -3 12 -1 16 5 9 14 25 12 23 -2
-2 -9 9 -13 32 -13 27 0 34 -4 32 -17 -2 -13 10 -19 54 -28 30 -7 66 -9 79 -6
13 3 26 2 30 -4 3 -5 18 -9 33 -8 15 0 51 -3 81 -7 50 -8 54 -7 48 10 -4 9 -2
24 4 31 12 15 30 19 28 7 -6 -36 2 -43 45 -43 47 0 72 25 42 42 -9 5 -20 17
-26 27 -8 17 -6 19 23 18 33 -1 34 -1 27 -39 -7 -37 -7 -38 19 -31 14 3 28 9
31 12 3 3 21 6 40 6 19 0 45 4 58 8 17 7 22 5 22 -8 0 -9 -4 -14 -8 -11 -12 7
-122 -109 -122 -128 0 -9 -7 -16 -16 -16 -8 0 -12 -5 -9 -10 9 -14 -13 -40
-34 -40 -9 0 -55 -41 -103 -92 l-88 -92 25 -14 c22 -11 35 -32 19 -32 -15 0
-70 38 -92 62 -13 16 -29 25 -37 21 -8 -3 -15 0 -15 6 0 6 5 11 11 11 6 0 -24
39 -67 88 -43 48 -80 89 -82 92 -2 2 -7 -2 -12 -10 -7 -12 -12 -12 -21 -3 -9
9 -9 16 -1 25 8 10 4 21 -16 43 -16 19 -27 25 -30 17 -5 -17 -32 -15 -32 3 0
8 7 15 16 15 12 0 7 10 -17 39 -26 29 -39 37 -57 34 -17 -4 -21 -2 -16 11 4
12 2 15 -9 11 -11 -5 -13 0 -10 19 7 33 19 33 27 1z m326 15 c0 -5 -7 -10 -15
-10 -8 0 -15 5 -15 10 0 6 7 10 15 10 8 0 15 -4 15 -10z m145 -10 c-3 -5 -11
-10 -16 -10 -6 0 -7 5 -4 10 3 6 11 10 16 10 6 0 7 -4 4 -10z m255 0 c0 -5 -4
-10 -10 -10 -5 0 -10 5 -10 10 0 6 5 10 10 10 6 0 10 -4 10 -10z m150 0 c0 -5
-4 -10 -10 -10 -5 0 -10 5 -10 10 0 6 5 10 10 10 6 0 10 -4 10 -10z m-325 -10
c-3 -5 -11 -10 -16 -10 -6 0 -7 5 -4 10 3 6 11 10 16 10 6 0 7 -4 4 -10z m145
-14 c0 -11 -19 -15 -25 -6 -3 5 1 10 9 10 9 0 16 -2 16 -4z m70 -6 c0 -5 -5
-10 -11 -10 -5 0 -7 5 -4 10 3 6 8 10 11 10 2 0 4 -4 4 -10z m-930 -4 c0 -3
-4 -8 -10 -11 -5 -3 -10 -1 -10 4 0 6 5 11 10 11 6 0 10 -2 10 -4z m140 -42
c0 -17 -37 -19 -42 -2 -3 7 0 18 6 24 13 14 36 0 36 -22z m230 32 c0 -3 -4 -8
-10 -11 -5 -3 -10 -1 -10 4 0 6 5 11 10 11 6 0 10 -2 10 -4z m184 -2 c28 -11
17 -20 -26 -21 -40 -2 -41 -1 -24 13 22 16 28 17 50 8z m164 -14 c-7 -11 -16
-20 -20 -20 -5 0 -8 9 -8 20 0 13 7 20 20 20 18 0 19 -2 8 -20z m365 1 c5 -19
-7 -22 -30 -8 -19 12 -16 27 6 27 10 0 21 -9 24 -19z m-1073 -1 c0 -5 -5 -10
-11 -10 -5 0 -7 5 -4 10 3 6 8 10 11 10 2 0 4 -4 4 -10z m1135 -1 c11 -17 -1
-21 -15 -4 -8 9 -8 15 -2 15 6 0 14 -5 17 -11z m-955 -9 c0 -5 6 -10 14 -10 8
0 18 -5 22 -12 5 -8 2 -9 -9 -5 -9 3 -19 2 -22 -4 -4 -5 -11 -7 -16 -4 -12 8
-12 45 1 45 6 0 10 -4 10 -10z m774 -25 c-6 -16 -24 -21 -24 -7 0 11 11 22 21
22 5 0 6 -7 3 -15z m-759 -45 c3 -6 -4 -10 -17 -10 -18 0 -20 2 -8 10 19 12
18 12 25 0z m725 -6 c0 -8 -4 -12 -10 -9 -5 3 -10 10 -10 16 0 5 5 9 10 9 6 0
10 -7 10 -16z m-25 -30 c0 -10 -7 -19 -15 -19 -8 -1 -14 -6 -12 -13 3 -19 -6
-14 -18 9 -9 17 -8 23 7 34 23 18 38 14 38 -11z m-795 -24 c0 -5 -5 -10 -11
-10 -5 0 -7 5 -4 10 3 6 8 10 11 10 2 0 4 -4 4 -10z m855 -10 c3 -5 -1 -10 -9
-10 -9 0 -16 5 -16 10 0 6 4 10 9 10 6 0 13 -4 16 -10z m-787 -31 c-16 -9 -60
-1 -53 10 2 4 18 6 36 3 23 -3 28 -7 17 -13z m97 -7 c-3 -3 -11 0 -18 7 -9 10
-8 11 6 5 10 -3 15 -9 12 -12z m80 -1 c3 -5 1 -12 -5 -16 -5 -3 -10 1 -10 9 0
18 6 21 15 7z m523 -8 c5 -17 -26 -29 -40 -15 -6 6 -7 15 -3 22 9 14 37 9 43
-7z m54 -15 c-7 -7 -12 -8 -12 -2 0 14 12 26 19 19 2 -3 -1 -11 -7 -17z m-697
2 c3 -5 1 -10 -4 -10 -6 0 -11 5 -11 10 0 6 2 10 4 10 3 0 8 -4 11 -10z m-27
-21 c2 -9 -5 -15 -18 -15 -11 0 -20 1 -20 2 0 31 32 41 38 13z m80 -7 c2 -7
-3 -12 -12 -12 -9 0 -16 7 -16 16 0 17 22 14 28 -4z m492 8 c0 -5 -4 -10 -10
-10 -5 0 -10 5 -10 10 0 6 5 10 10 10 6 0 10 -4 10 -10z m40 -21 c0 -5 -10 -9
-21 -9 -18 0 -19 2 -9 15 12 15 30 12 30 -6z m-470 -4 c0 -8 -6 -15 -14 -15
-17 0 -28 14 -19 24 12 12 33 6 33 -9z m510 -5 c-8 -5 -18 -6 -24 -3 -5 4 -1
10 10 13 24 9 34 2 14 -10z m40 10 c0 -5 -5 -10 -11 -10 -5 0 -7 5 -4 10 3 6
8 10 11 10 2 0 4 -4 4 -10z m-610 -50 c0 -11 -7 -20 -15 -20 -13 0 -14 4 -5
20 6 11 13 20 15 20 3 0 5 -9 5 -20z m146 -31 c19 -22 19 -22 -3 -10 -13 6
-23 16 -23 21 0 15 5 12 26 -11z m-56 -13 c0 -3 -4 -8 -10 -11 -5 -3 -10 -1
-10 4 0 6 5 11 10 11 6 0 10 -2 10 -4z m280 -6 c0 -5 -7 -10 -15 -10 -8 0 -15
5 -15 10 0 6 7 10 15 10 8 0 15 -4 15 -10z m70 -7 c-8 -3 -18 -10 -21 -16 -8
-11 -43 -1 -36 10 3 5 20 9 39 10 18 0 26 -1 18 -4z m85 -3 c-3 -5 -10 -10
-16 -10 -5 0 -9 5 -9 10 0 6 7 10 16 10 8 0 12 -4 9 -10z m-375 -21 c0 -5 -6
-9 -14 -9 -8 0 -16 -7 -20 -15 -6 -17 -15 -19 -35 -6 -12 7 -12 13 -3 24 13
16 72 21 72 6z m50 -9 c0 -5 -10 -10 -22 -9 -22 0 -22 1 -3 9 11 5 21 9 23 9
1 1 2 -3 2 -9z m306 -21 c8 -14 -14 -29 -33 -22 -10 4 -11 9 -2 19 14 17 25
18 35 3z m-130 -24 c14 -13 14 -15 0 -15 -10 0 -13 -6 -10 -15 4 -8 1 -15 -5
-15 -6 0 -11 8 -11 17 0 13 -3 14 -12 5 -24 -24 -31 -12 -8 13 28 29 27 29 46
10z m-136 -15 c0 -9 -42 -22 -48 -15 -3 3 1 11 7 19 12 14 41 12 41 -4z m-60
0 c0 -5 -5 -10 -11 -10 -5 0 -7 5 -4 10 3 6 8 10 11 10 2 0 4 -4 4 -10z m110
-14 c0 -3 -4 -8 -10 -11 -5 -3 -10 -1 -10 4 0 6 5 11 10 11 6 0 10 -2 10 -4z
m147 -2 c20 -5 20 -7 5 -25 -20 -23 -48 -25 -56 -3 -12 30 6 40 51 28z m-232
-34 l20 -9 -20 -1 c-11 -1 -28 -3 -38 -5 -15 -3 -16 -1 -6 11 13 16 16 16 44
4z m115 -10 c0 -5 -9 -10 -21 -10 -11 0 -17 5 -14 10 3 6 13 10 21 10 8 0 14
-4 14 -10z m-100 -94 c0 -5 -7 -1 -15 10 -8 10 -14 24 -14 29 0 6 6 1 14 -9 8
-11 15 -24 15 -30z m140 14 c0 -5 -4 -10 -10 -10 -5 0 -10 5 -10 10 0 6 5 10
10 10 6 0 10 -4 10 -10z"/>
<path d="M1480 1306 c0 -2 7 -6 15 -10 8 -3 15 -1 15 4 0 6 -7 10 -15 10 -8 0
-15 -2 -15 -4z"/>
</g>
</svg>
