<?xml version="1.0" standalone="no"?>
<!DOCTYPE svg PUBLIC "-//W3C//DTD SVG 20010904//EN"
 "http://www.w3.org/TR/2001/REC-SVG-20010904/DTD/svg10.dtd">
<svg version="1.0" xmlns="http://www.w3.org/2000/svg"
 width="150.000000pt" height="150.000000pt" viewBox="0 0 512.000000 512.000000"
 preserveAspectRatio="xMidYMid meet">

<g transform="translate(0.000000,512.000000) scale(0.100000,-0.100000)"
fill="white" stroke="none">
<path d="M1390 4732 c-19 -10 -45 -34 -57 -52 l-23 -33 0 -2087 0 -2087 23
-33 c26 -39 80 -70 121 -70 28 0 101 30 306 128 58 28 366 175 685 327 l580
276 28 -33 c15 -18 134 -174 265 -345 195 -257 244 -316 278 -333 22 -11 51
-20 65 -20 42 1 108 37 129 72 23 38 26 110 7 149 -8 14 -150 204 -317 422
-202 266 -313 403 -334 414 -70 37 -66 38 -810 -316 -384 -183 -705 -335 -712
-338 -12 -4 -14 279 -14 1786 0 985 3 1791 7 1791 4 0 327 -150 718 -334 391
-184 726 -337 745 -341 26 -4 47 0 80 17 39 20 79 68 309 378 336 453 341 461
341 519 0 114 -112 184 -216 135 -26 -12 -93 -97 -284 -355 -138 -186 -254
-341 -259 -343 -4 -3 -257 112 -562 255 -305 143 -576 271 -604 284 -27 12
-124 58 -215 100 -182 86 -226 96 -280 67z"/>
</g>
</svg>
