<?xml version="1.0" standalone="no"?>
<!DOCTYPE svg PUBLIC "-//W3C//DTD SVG 20010904//EN"
 "http://www.w3.org/TR/2001/REC-SVG-20010904/DTD/svg10.dtd">
<svg version="1.0" xmlns="http://www.w3.org/2000/svg"
 width="150.000000pt" height="150.000000pt" viewBox="0 0 512.000000 512.000000"
 preserveAspectRatio="xMidYMid meet">

<g transform="translate(0.000000,512.000000) scale(0.100000,-0.100000)"
fill="white" stroke="none">
<path d="M1700 4732 c-20 -11 -44 -37 -57 -62 l-23 -43 0 -2065 c0 -2051 0
-2066 20 -2106 30 -61 63 -81 135 -81 67 0 100 17 132 70 17 28 18 64 21 475
l3 445 748 523 c412 288 759 533 771 544 26 24 50 77 50 111 0 12 -10 42 -22
66 -21 39 -97 94 -783 570 l-760 528 -5 469 c-5 515 -4 501 -68 548 -37 28
-118 32 -162 8z m806 -1794 c310 -215 564 -395 564 -398 0 -5 -1079 -764
-1127 -793 -11 -7 -13 125 -13 788 0 437 3 795 6 795 3 0 260 -176 570 -392z"/>
</g>
</svg>
