<?xml version="1.0" standalone="no"?>
<!DOCTYPE svg PUBLIC "-//W3C//DTD SVG 20010904//EN"
 "http://www.w3.org/TR/2001/REC-SVG-20010904/DTD/svg10.dtd">
<svg version="1.0" xmlns="http://www.w3.org/2000/svg"
 width="150.000000pt" height="150.000000pt" viewBox="0 0 512.000000 512.000000"
 preserveAspectRatio="xMidYMid meet">

<g transform="translate(0.000000,512.000000) scale(0.100000,-0.100000)"
fill="white" stroke="none">
<path d="M1379 4727 c-19 -12 -42 -38 -51 -57 -17 -33 -18 -154 -18 -2110 0
-2001 1 -2077 19 -2110 27 -50 62 -73 123 -77 62 -5 106 17 138 69 20 33 20
54 20 1471 0 790 3 1437 8 1436 4 0 430 -321 947 -712 l940 -713 5 -730 c5
-682 6 -732 23 -757 62 -95 205 -88 258 13 18 33 19 109 19 2110 0 2001 -1
2077 -19 2110 -53 101 -196 108 -258 13 -17 -26 -18 -91 -23 -1201 l-5 -1174
-947 717 -948 717 0 451 c0 433 -1 453 -20 485 -44 71 -143 95 -211 49z"/>
</g>
</svg>
