<?xml version="1.0" standalone="no"?>
<!DOCTYPE svg PUBLIC "-//W3C//DTD SVG 20010904//EN"
 "http://www.w3.org/TR/2001/REC-SVG-20010904/DTD/svg10.dtd">
<svg version="1.0" xmlns="http://www.w3.org/2000/svg"
 width="150.000000pt" height="150.000000pt" viewBox="0 0 512.000000 512.000000"
 preserveAspectRatio="xMidYMid meet">

<g transform="translate(0.000000,512.000000) scale(0.100000,-0.100000)"
fill="white" stroke="none">
<path d="M1662 4730 c-18 -11 -41 -34 -52 -52 -20 -33 -20 -55 -20 -2118 0
-2063 0 -2085 20 -2118 59 -96 201 -96 260 0 19 32 20 54 21 918 1 487 4 950
8 1029 l6 145 790 510 c581 376 795 520 812 545 39 57 28 147 -23 192 -15 13
-1311 752 -1635 932 -77 43 -135 49 -187 17z m829 -731 c321 -182 587 -334
591 -337 3 -4 -254 -182 -573 -397 -318 -214 -588 -396 -599 -404 -20 -13 -20
-13 -20 728 0 409 4 741 9 741 4 0 271 -149 592 -331z"/>
</g>
</svg>
