<?xml version="1.0" standalone="no"?>
<!DOCTYPE svg PUBLIC "-//W3C//DTD SVG 20010904//EN"
 "http://www.w3.org/TR/2001/REC-SVG-20010904/DTD/svg10.dtd">
<svg version="1.0" xmlns="http://www.w3.org/2000/svg"
 width="150.000000pt" height="150.000000pt" viewBox="0 0 512.000000 512.000000"
 preserveAspectRatio="xMidYMid meet">

<g transform="translate(0.000000,512.000000) scale(0.100000,-0.100000)"
fill="white" stroke="none">
<path d="M1400 4718 c-33 -17 -51 -35 -67 -68 l-23 -44 0 -2046 0 -2046 23
-44 c29 -60 96 -95 158 -85 51 9 113 67 122 115 4 18 7 883 7 1922 0 1194 4
1888 10 1886 5 -1 428 -250 939 -553 l930 -550 1 -1336 c0 -735 3 -1351 7
-1369 9 -48 71 -106 122 -115 62 -10 129 25 159 85 l22 44 0 1391 c0 885 -4
1403 -10 1426 -5 19 -22 47 -37 61 -25 24 -353 220 -1780 1064 -303 179 -476
276 -500 279 -28 5 -50 0 -83 -17z"/>
</g>
</svg>
