<?xml version="1.0" standalone="no"?>
<!DOCTYPE svg PUBLIC "-//W3C//DTD SVG 20010904//EN"
 "http://www.w3.org/TR/2001/REC-SVG-20010904/DTD/svg10.dtd">
<svg version="1.0" xmlns="http://www.w3.org/2000/svg"
 width="150.000000pt" height="150.000000pt" viewBox="0 0 512.000000 512.000000"
 preserveAspectRatio="xMidYMid meet">

<g transform="translate(0.000000,512.000000) scale(0.100000,-0.100000)"
fill="white" stroke="none">
<path d="M2552 4718 c-31 -16 -211 -202 -609 -628 -311 -333 -574 -618 -584
-635 -24 -39 -25 -111 -1 -150 10 -16 244 -324 520 -684 440 -573 500 -656
488 -670 -50 -59 -1042 -1331 -1053 -1351 -16 -31 -17 -94 -2 -123 52 -102
174 -123 248 -44 17 17 249 311 516 652 267 341 489 621 494 623 4 1 225 -281
490 -628 266 -346 495 -641 508 -654 71 -72 190 -49 238 45 18 35 19 96 2 129
-7 14 -244 325 -525 692 -282 367 -512 670 -512 673 0 4 217 284 483 623 266
339 500 639 520 665 32 41 37 56 37 100 0 34 -7 63 -19 82 -30 48 -1063 1256
-1091 1276 -42 31 -99 34 -148 7z m488 -865 c400 -470 422 -498 409 -518 -39
-61 -873 -1114 -879 -1110 -13 8 -875 1135 -875 1144 0 10 907 981 916 981 3
0 196 -224 429 -497z"/>
</g>
</svg>
