<?xml version="1.0" standalone="no"?>
<!DOCTYPE svg PUBLIC "-//W3C//DTD SVG 20010904//EN"
 "http://www.w3.org/TR/2001/REC-SVG-20010904/DTD/svg10.dtd">
<svg version="1.0" xmlns="http://www.w3.org/2000/svg"
 width="150.000000pt" height="150.000000pt" viewBox="0 0 512.000000 512.000000"
 preserveAspectRatio="xMidYMid meet">

<g transform="translate(0.000000,512.000000) scale(0.100000,-0.100000)"
fill="white" stroke="none">
<path d="M1696 4750 c-16 -5 -40 -19 -53 -32 -57 -53 -53 96 -53 -2155 0
-2005 1 -2080 19 -2113 20 -38 88 -80 129 -80 38 0 108 37 129 68 17 25 18 73
23 859 l5 832 690 -862 c380 -473 702 -870 717 -881 38 -27 118 -27 156 0 62
47 88 122 63 186 -5 13 -356 457 -780 988 -424 531 -771 968 -771 972 0 4 342
237 760 519 418 282 768 524 777 538 39 59 26 148 -29 197 -42 40 -1682 962
-1718 968 -19 3 -48 1 -64 -4z m780 -738 c319 -181 587 -333 598 -339 16 -9
-72 -71 -577 -412 -328 -220 -598 -401 -601 -401 -3 0 -6 333 -6 740 0 407 2
740 4 740 2 0 264 -148 582 -328z"/>
</g>
</svg>
