<?xml version="1.0" standalone="no"?>
<!DOCTYPE svg PUBLIC "-//W3C//DTD SVG 20010904//EN"
 "http://www.w3.org/TR/2001/REC-SVG-20010904/DTD/svg10.dtd">
<svg version="1.0" xmlns="http://www.w3.org/2000/svg"
 width="30.000000pt" height="30.000000pt" viewBox="0 0 50.000000 50.000000"
 preserveAspectRatio="xMidYMid meet">

<g transform="translate(0.000000,50.000000) scale(0.100000,-0.100000)"
fill="white" stroke="none">
<path d="M37 464 c-4 -4 -7 -61 -7 -126 0 -98 3 -120 16 -125 8 -3 20 -1 27 6
8 8 7 11 -6 11 -15 0 -17 13 -17 110 l0 110 110 0 110 0 0 -79 c0 -79 0 -80
-27 -83 -22 -2 -29 -9 -31 -30 -3 -22 -8 -28 -28 -28 -14 0 -22 -4 -19 -10 3
-5 15 -10 26 -10 12 0 19 -7 19 -19 0 -11 5 -23 10 -26 6 -4 10 15 10 49 l0
56 110 0 110 0 0 -110 0 -110 -110 0 c-97 0 -110 2 -110 17 0 13 -3 14 -11 6
-7 -7 -9 -19 -6 -28 6 -13 24 -15 129 -13 l123 3 0 125 0 125 -87 3 -87 3 -3
87 -3 87 -121 3 c-66 1 -123 -1 -127 -4z"/>
<path d="M160 410 c0 -5 -18 -10 -40 -10 -22 0 -40 -4 -40 -10 0 -6 27 -10 60
-10 l60 0 -12 -25 c-14 -30 -20 -31 -43 -5 -10 11 -22 17 -27 14 -5 -3 0 -17
13 -30 l22 -23 -27 -12 c-14 -7 -26 -16 -26 -21 0 -13 24 -10 45 6 14 10 25
11 38 4 22 -11 38 -1 17 12 -12 7 -11 14 5 44 11 20 25 36 32 36 7 0 13 5 13
10 0 6 -16 10 -35 10 -19 0 -35 5 -35 10 0 6 -4 10 -10 10 -5 0 -10 -4 -10
-10z"/>
<path d="M90 215 c-19 -21 -21 -25 -7 -25 10 0 17 -8 17 -20 0 -13 7 -20 20
-20 13 0 20 7 20 20 0 12 7 20 17 20 14 0 12 4 -7 25 -13 14 -26 25 -30 25 -4
0 -17 -11 -30 -25z"/>
<path d="M312 188 c-11 -29 -23 -61 -27 -70 -5 -13 -2 -18 9 -18 9 0 16 7 16
15 0 21 50 19 66 -2 7 -10 15 -15 18 -12 8 8 -39 132 -52 137 -6 2 -19 -21
-30 -50z m41 -18 c4 -15 0 -20 -13 -20 -13 0 -17 5 -13 20 3 11 9 20 13 20 4
0 10 -9 13 -20z"/>
<path d="M190 157 c0 -13 -9 -17 -42 -17 -40 0 -41 0 -23 -20 10 -11 29 -20
42 -20 15 0 23 -6 23 -17 0 -14 5 -12 27 10 l28 27 -28 27 c-22 22 -27 24 -27
10z"/>
</g>
</svg>
